<svg width="40" height="36" viewBox="0 0 40 36" fill="none" xmlns="http://www.w3.org/2000/svg">
<path d="M0.0983887 18.2699C0.0983887 8.57949 7.954 0.723877 17.6444 0.723877H39.4426V16.1437C39.4426 27.0084 30.6351 35.8159 19.7705 35.8159H17.6444C7.95401 35.8159 0.0983887 27.9603 0.0983887 18.2699Z" fill="#0003FF"/>
<path d="M15.8361 10.7239C15.8361 5.20103 20.3132 0.723877 25.8361 0.723877H39.4426V10.9018C39.4426 16.4246 34.9655 20.9018 29.4426 20.9018H15.8361V10.7239Z" fill="#FFA800"/>
<path d="M8.68081 30.6012L18.0408 9.60119H22.8408L32.2308 30.6012H27.1308L19.4508 12.0612H21.3708L13.6608 30.6012H8.68081ZM13.3608 26.1012L14.6508 22.4112H25.4508L26.7708 26.1012H13.3608Z" fill="white"/>
</svg>
