<svg width="791" height="643" viewBox="0 0 791 643" fill="none" xmlns="http://www.w3.org/2000/svg">
<path d="M9.10001 469.355C7.70001 469.355 6.30001 468.653 5.10001 468.039C3.20001 467.162 2 466.636 1 467.162L0 465.846C2 464.706 4.09999 465.758 5.89999 466.636C7.79999 467.513 9 468.039 10 467.513C11 466.899 11 465.758 10.7 463.916C10.5 462.074 10.3 459.968 12.2 458.828C14.2 457.687 16.3 458.74 18.1 459.617C20 460.495 21.2 461.021 22.2 460.495C23.2 459.88 23.2 458.74 22.9 456.898C22.7 455.055 22.5 452.95 24.4 451.809C26.4 450.669 28.5 451.722 30.3 452.599C32.2 453.476 33.4 454.003 34.4 453.476C35.4 452.862 35.4 451.722 35.1 449.879C34.9 448.037 34.7 445.931 36.6 444.791C38.6 443.65 40.7 444.703 42.5 445.581C44.4 446.458 45.6 446.984 46.6 446.458C47.6 445.844 47.6 444.703 47.3 442.861C47.1 441.019 46.9 438.913 48.8 437.773C50.8 436.632 52.9 437.685 54.7 438.562C56.6 439.439 57.8 439.966 58.8 439.439C59.8 438.825 59.8 437.685 59.6 435.843C59.4 434 59.2 431.895 61.1 430.754L62.1 432.07C61.1 432.684 61.1 433.825 61.3 435.667C61.5 437.509 61.7 439.615 59.8 440.755C57.8 441.896 55.7 440.843 53.9 439.966C52 439.088 50.8 438.562 49.8 439.088C48.8 439.703 48.8 440.843 49.1 442.685C49.3 444.528 49.5 446.633 47.6 447.774C45.6 448.914 43.5 447.861 41.7 446.984C39.8 446.107 38.6 445.581 37.6 446.107C36.6 446.721 36.6 447.861 36.9 449.704C37.1 451.546 37.3 453.652 35.4 454.792C33.4 455.933 31.3 454.88 29.5 454.003C27.6 453.125 26.4 452.599 25.4 453.125C24.4 453.739 24.4 454.88 24.7 456.722C24.9 458.565 25.1 460.67 23.2 461.811C21.2 462.951 19.1 461.898 17.3 461.021C15.4 460.144 14.2 459.617 13.2 460.144C12.2 460.758 12.2 461.898 12.5 463.741C12.7 465.583 12.9 467.688 11 468.829C10.3 469.18 9.70001 469.355 9.10001 469.355Z" fill="white"/>
<path d="M534.1 192.129C532.7 192.129 531.3 191.427 530.1 190.813C528.2 189.935 527 189.409 526 189.935L525 188.619C527 187.479 529.1 188.532 530.9 189.409C532.8 190.286 534 190.813 535 190.286C536 189.672 536 188.532 535.7 186.689C535.5 184.847 535.3 182.742 537.2 181.601C539.2 180.461 541.3 181.513 543.1 182.391C545 183.268 546.2 183.794 547.2 183.268C548.2 182.654 548.2 181.513 547.9 179.671C547.7 177.829 547.5 175.723 549.4 174.583C551.4 173.442 553.5 174.495 555.3 175.372C557.2 176.25 558.4 176.776 559.4 176.25C560.4 175.635 560.4 174.495 560.1 172.653C559.9 170.81 559.7 168.705 561.6 167.564C563.6 166.424 565.7 167.477 567.5 168.354C569.4 169.231 570.6 169.758 571.6 169.231C572.6 168.617 572.6 167.477 572.3 165.634C572.1 163.792 571.9 161.686 573.8 160.546C575.8 159.405 577.9 160.458 579.7 161.335C581.6 162.213 582.8 162.739 583.8 162.213C584.8 161.599 584.8 160.458 584.6 158.616C584.4 156.773 584.2 154.668 586.1 153.527L587.1 154.843C586.1 155.458 586.1 156.598 586.3 158.44C586.5 160.283 586.7 162.388 584.8 163.529C582.8 164.669 580.7 163.616 578.9 162.739C577 161.862 575.8 161.335 574.8 161.862C573.8 162.476 573.8 163.616 574.1 165.459C574.3 167.301 574.5 169.407 572.6 170.547C570.6 171.688 568.5 170.635 566.7 169.758C564.8 168.88 563.6 168.354 562.6 168.88C561.6 169.494 561.6 170.635 561.9 172.477C562.1 174.319 562.3 176.425 560.4 177.565C558.4 178.706 556.3 177.653 554.5 176.776C552.6 175.899 551.4 175.372 550.4 175.899C549.4 176.513 549.4 177.653 549.7 179.496C549.9 181.338 550.1 183.443 548.2 184.584C546.2 185.724 544.1 184.672 542.3 183.794C540.4 182.917 539.2 182.391 538.2 182.917C537.2 183.531 537.2 184.672 537.5 186.514C537.7 188.356 537.9 190.462 536 191.602C535.3 191.953 534.7 192.129 534.1 192.129Z" fill="white"/>
<path d="M566.1 428.122C564.7 428.122 563.3 427.42 562.1 426.806C560.2 425.929 559 425.403 558 425.929L557 424.613C559 423.473 561.1 424.525 562.9 425.403C564.8 426.28 566 426.806 567 426.28C568 425.666 568 424.525 567.7 422.683C567.5 420.841 567.3 418.735 569.2 417.595C571.2 416.454 573.3 417.507 575.1 418.384C577 419.262 578.2 419.788 579.2 419.262C580.2 418.647 580.2 417.507 579.9 415.665C579.7 413.822 579.5 411.717 581.4 410.576C583.4 409.436 585.5 410.489 587.3 411.366C589.2 412.243 590.4 412.77 591.4 412.243C592.4 411.629 592.4 410.489 592.1 408.646C591.9 406.804 591.7 404.698 593.6 403.558C595.6 402.417 597.7 403.47 599.5 404.347C601.4 405.225 602.6 405.751 603.6 405.225C604.6 404.611 604.6 403.47 604.3 401.628C604.1 399.786 603.9 397.68 605.8 396.54C607.8 395.399 609.9 396.452 611.7 397.329C613.6 398.206 614.8 398.733 615.8 398.206C616.8 397.592 616.8 396.452 616.6 394.609C616.4 392.767 616.2 390.662 618.1 389.521L619.1 390.837C618.1 391.451 618.1 392.592 618.3 394.434C618.5 396.276 618.7 398.382 616.8 399.522C614.8 400.663 612.7 399.61 610.9 398.733C609 397.855 607.8 397.329 606.8 397.855C605.8 398.47 605.8 399.61 606.1 401.452C606.3 403.295 606.5 405.4 604.6 406.541C602.6 407.681 600.5 406.628 598.7 405.751C596.8 404.874 595.6 404.347 594.6 404.874C593.6 405.488 593.6 406.628 593.9 408.471C594.1 410.313 594.3 412.419 592.4 413.559C590.4 414.7 588.3 413.647 586.5 412.77C584.6 411.892 583.4 411.366 582.4 411.892C581.4 412.506 581.4 413.647 581.7 415.489C581.9 417.332 582.1 419.437 580.2 420.578C578.2 421.718 576.1 420.665 574.3 419.788C572.4 418.911 571.2 418.384 570.2 418.911C569.2 419.525 569.2 420.665 569.5 422.508C569.7 424.35 569.9 426.455 568 427.596C567.3 427.947 566.7 428.122 566.1 428.122Z" fill="white"/>
<path d="M728.923 151.319C729.333 151.319 729.665 151.028 729.665 150.669C729.665 150.309 729.333 150.018 728.923 150.018C728.514 150.018 728.182 150.309 728.182 150.669C728.182 151.028 728.514 151.319 728.923 151.319Z" fill="#8643DC"/>
<path d="M725.217 154.57C725.627 154.57 725.959 154.279 725.959 153.92C725.959 153.561 725.627 153.27 725.217 153.27C724.808 153.27 724.476 153.561 724.476 153.92C724.476 154.279 724.808 154.57 725.217 154.57Z" fill="#8643DC"/>
<path d="M721.326 157.821C721.735 157.821 722.067 157.53 722.067 157.171C722.067 156.812 721.735 156.521 721.326 156.521C720.916 156.521 720.585 156.812 720.585 157.171C720.585 157.53 720.916 157.821 721.326 157.821Z" fill="#8643DC"/>
<path d="M717.62 161.073C718.029 161.073 718.361 160.782 718.361 160.423C718.361 160.063 718.029 159.772 717.62 159.772C717.21 159.772 716.879 160.063 716.879 160.423C716.879 160.782 717.21 161.073 717.62 161.073Z" fill="#8643DC"/>
<path d="M713.728 164.487C714.138 164.487 714.47 164.196 714.47 163.837C714.47 163.477 714.138 163.186 713.728 163.186C713.319 163.186 712.987 163.477 712.987 163.837C712.987 164.196 713.319 164.487 713.728 164.487Z" fill="#8643DC"/>
<path d="M710.022 167.738C710.432 167.738 710.764 167.447 710.764 167.088C710.764 166.729 710.432 166.438 710.022 166.438C709.613 166.438 709.281 166.729 709.281 167.088C709.281 167.447 709.613 167.738 710.022 167.738Z" fill="#8643DC"/>
<path d="M706.131 170.989C706.54 170.989 706.872 170.698 706.872 170.339C706.872 169.98 706.54 169.689 706.131 169.689C705.721 169.689 705.39 169.98 705.39 170.339C705.39 170.698 705.721 170.989 706.131 170.989Z" fill="#8643DC"/>
<path d="M702.425 174.241C702.834 174.241 703.166 173.95 703.166 173.59C703.166 173.231 702.834 172.94 702.425 172.94C702.015 172.94 701.684 173.231 701.684 173.59C701.684 173.95 702.015 174.241 702.425 174.241Z" fill="#8643DC"/>
<path d="M698.534 177.492C698.943 177.492 699.275 177.201 699.275 176.842C699.275 176.483 698.943 176.192 698.534 176.192C698.124 176.192 697.792 176.483 697.792 176.842C697.792 177.201 698.124 177.492 698.534 177.492Z" fill="#8643DC"/>
<path d="M694.827 180.743C695.237 180.743 695.569 180.452 695.569 180.093C695.569 179.734 695.237 179.443 694.827 179.443C694.418 179.443 694.086 179.734 694.086 180.093C694.086 180.452 694.418 180.743 694.827 180.743Z" fill="#8643DC"/>
<path d="M690.936 183.995C691.346 183.995 691.677 183.704 691.677 183.344C691.677 182.985 691.346 182.694 690.936 182.694C690.527 182.694 690.195 182.985 690.195 183.344C690.195 183.704 690.527 183.995 690.936 183.995Z" fill="#8643DC"/>
<path d="M687.23 187.246C687.639 187.246 687.971 186.955 687.971 186.596C687.971 186.237 687.639 185.946 687.23 185.946C686.821 185.946 686.489 186.237 686.489 186.596C686.489 186.955 686.821 187.246 687.23 187.246Z" fill="#8643DC"/>
<path d="M683.339 190.497C683.748 190.497 684.08 190.206 684.08 189.847C684.08 189.488 683.748 189.197 683.339 189.197C682.929 189.197 682.597 189.488 682.597 189.847C682.597 190.206 682.929 190.497 683.339 190.497Z" fill="#8643DC"/>
<path d="M679.633 193.749C680.042 193.749 680.374 193.458 680.374 193.098C680.374 192.739 680.042 192.448 679.633 192.448C679.223 192.448 678.891 192.739 678.891 193.098C678.891 193.458 679.223 193.749 679.633 193.749Z" fill="#8643DC"/>
<path d="M675.741 197C676.151 197 676.482 196.709 676.482 196.35C676.482 195.991 676.151 195.7 675.741 195.7C675.332 195.7 675 195.991 675 196.35C675 196.709 675.332 197 675.741 197Z" fill="#8643DC"/>
<path d="M733.371 155.22C733.78 155.22 734.112 154.929 734.112 154.57C734.112 154.211 733.78 153.92 733.371 153.92C732.961 153.92 732.629 154.211 732.629 154.57C732.629 154.929 732.961 155.22 733.371 155.22Z" fill="#8643DC"/>
<path d="M729.664 158.472C730.074 158.472 730.406 158.181 730.406 157.821C730.406 157.462 730.074 157.171 729.664 157.171C729.255 157.171 728.923 157.462 728.923 157.821C728.923 158.181 729.255 158.472 729.664 158.472Z" fill="#8643DC"/>
<path d="M725.773 161.886C726.182 161.886 726.514 161.594 726.514 161.235C726.514 160.876 726.182 160.585 725.773 160.585C725.364 160.585 725.032 160.876 725.032 161.235C725.032 161.594 725.364 161.886 725.773 161.886Z" fill="#8643DC"/>
<path d="M721.882 165.137C722.291 165.137 722.623 164.846 722.623 164.487C722.623 164.128 722.291 163.836 721.882 163.836C721.472 163.836 721.141 164.128 721.141 164.487C721.141 164.846 721.472 165.137 721.882 165.137Z" fill="#8643DC"/>
<path d="M718.176 168.388C718.585 168.388 718.917 168.097 718.917 167.738C718.917 167.379 718.585 167.088 718.176 167.088C717.766 167.088 717.434 167.379 717.434 167.738C717.434 168.097 717.766 168.388 718.176 168.388Z" fill="#8643DC"/>
<path d="M714.284 171.64C714.694 171.64 715.026 171.349 715.026 170.989C715.026 170.63 714.694 170.339 714.284 170.339C713.875 170.339 713.543 170.63 713.543 170.989C713.543 171.349 713.875 171.64 714.284 171.64Z" fill="#8643DC"/>
<path d="M710.578 174.891C710.988 174.891 711.319 174.6 711.319 174.241C711.319 173.882 710.988 173.59 710.578 173.59C710.169 173.59 709.837 173.882 709.837 174.241C709.837 174.6 710.169 174.891 710.578 174.891Z" fill="#8643DC"/>
<path d="M706.687 178.142C707.096 178.142 707.428 177.851 707.428 177.492C707.428 177.133 707.096 176.842 706.687 176.842C706.277 176.842 705.946 177.133 705.946 177.492C705.946 177.851 706.277 178.142 706.687 178.142Z" fill="#8643DC"/>
<path d="M702.981 181.394C703.39 181.394 703.722 181.103 703.722 180.743C703.722 180.384 703.39 180.093 702.981 180.093C702.571 180.093 702.24 180.384 702.24 180.743C702.24 181.103 702.571 181.394 702.981 181.394Z" fill="#8643DC"/>
<path d="M699.089 184.645C699.499 184.645 699.831 184.354 699.831 183.995C699.831 183.635 699.499 183.344 699.089 183.344C698.68 183.344 698.348 183.635 698.348 183.995C698.348 184.354 698.68 184.645 699.089 184.645Z" fill="#8643DC"/>
<path d="M695.383 187.896C695.793 187.896 696.124 187.605 696.124 187.246C696.124 186.887 695.793 186.596 695.383 186.596C694.974 186.596 694.642 186.887 694.642 187.246C694.642 187.605 694.974 187.896 695.383 187.896Z" fill="#8643DC"/>
<path d="M691.492 191.148C691.901 191.148 692.233 190.857 692.233 190.497C692.233 190.138 691.901 189.847 691.492 189.847C691.082 189.847 690.751 190.138 690.751 190.497C690.751 190.857 691.082 191.148 691.492 191.148Z" fill="#8643DC"/>
<path d="M687.786 194.399C688.195 194.399 688.527 194.108 688.527 193.749C688.527 193.39 688.195 193.099 687.786 193.099C687.377 193.099 687.045 193.39 687.045 193.749C687.045 194.108 687.377 194.399 687.786 194.399Z" fill="#8643DC"/>
<path d="M683.895 197.65C684.304 197.65 684.636 197.359 684.636 197C684.636 196.641 684.304 196.35 683.895 196.35C683.485 196.35 683.153 196.641 683.153 197C683.153 197.359 683.485 197.65 683.895 197.65Z" fill="#8643DC"/>
<path d="M680.188 200.902C680.598 200.902 680.93 200.61 680.93 200.251C680.93 199.892 680.598 199.601 680.188 199.601C679.779 199.601 679.447 199.892 679.447 200.251C679.447 200.61 679.779 200.902 680.188 200.902Z" fill="#8643DC"/>
<path d="M737.818 159.285C738.227 159.285 738.559 158.993 738.559 158.634C738.559 158.275 738.227 157.984 737.818 157.984C737.409 157.984 737.077 158.275 737.077 158.634C737.077 158.993 737.409 159.285 737.818 159.285Z" fill="#8643DC"/>
<path d="M733.927 162.536C734.336 162.536 734.668 162.245 734.668 161.886C734.668 161.526 734.336 161.235 733.927 161.235C733.517 161.235 733.185 161.526 733.185 161.886C733.185 162.245 733.517 162.536 733.927 162.536Z" fill="#8643DC"/>
<path d="M730.221 165.787C730.63 165.787 730.962 165.496 730.962 165.137C730.962 164.778 730.63 164.487 730.221 164.487C729.811 164.487 729.479 164.778 729.479 165.137C729.479 165.496 729.811 165.787 730.221 165.787Z" fill="#8643DC"/>
<path d="M726.329 169.038C726.738 169.038 727.07 168.747 727.07 168.388C727.07 168.029 726.738 167.738 726.329 167.738C725.92 167.738 725.588 168.029 725.588 168.388C725.588 168.747 725.92 169.038 726.329 169.038Z" fill="#8643DC"/>
<path d="M722.623 172.29C723.032 172.29 723.364 171.999 723.364 171.64C723.364 171.281 723.032 170.989 722.623 170.989C722.214 170.989 721.882 171.281 721.882 171.64C721.882 171.999 722.214 172.29 722.623 172.29Z" fill="#8643DC"/>
<path d="M718.732 175.541C719.141 175.541 719.473 175.25 719.473 174.891C719.473 174.532 719.141 174.241 718.732 174.241C718.322 174.241 717.99 174.532 717.99 174.891C717.99 175.25 718.322 175.541 718.732 175.541Z" fill="#8643DC"/>
<path d="M715.026 178.793C715.435 178.793 715.767 178.501 715.767 178.142C715.767 177.783 715.435 177.492 715.026 177.492C714.616 177.492 714.284 177.783 714.284 178.142C714.284 178.501 714.616 178.793 715.026 178.793Z" fill="#8643DC"/>
<path d="M711.134 182.044C711.544 182.044 711.876 181.753 711.876 181.394C711.876 181.035 711.544 180.743 711.134 180.743C710.725 180.743 710.393 181.035 710.393 181.394C710.393 181.753 710.725 182.044 711.134 182.044Z" fill="#8643DC"/>
<path d="M707.243 185.295C707.652 185.295 707.984 185.004 707.984 184.645C707.984 184.286 707.652 183.995 707.243 183.995C706.834 183.995 706.502 184.286 706.502 184.645C706.502 185.004 706.834 185.295 707.243 185.295Z" fill="#8643DC"/>
<path d="M703.537 188.546C703.946 188.546 704.278 188.255 704.278 187.896C704.278 187.537 703.946 187.246 703.537 187.246C703.128 187.246 702.796 187.537 702.796 187.896C702.796 188.255 703.128 188.546 703.537 188.546Z" fill="#8643DC"/>
<path d="M699.645 191.798C700.055 191.798 700.387 191.507 700.387 191.148C700.387 190.789 700.055 190.497 699.645 190.497C699.236 190.497 698.904 190.789 698.904 191.148C698.904 191.507 699.236 191.798 699.645 191.798Z" fill="#8643DC"/>
<path d="M695.939 195.049C696.349 195.049 696.681 194.758 696.681 194.399C696.681 194.04 696.349 193.749 695.939 193.749C695.53 193.749 695.198 194.04 695.198 194.399C695.198 194.758 695.53 195.049 695.939 195.049Z" fill="#8643DC"/>
<path d="M692.048 198.301C692.457 198.301 692.789 198.01 692.789 197.65C692.789 197.291 692.457 197 692.048 197C691.639 197 691.307 197.291 691.307 197.65C691.307 198.01 691.639 198.301 692.048 198.301Z" fill="#8643DC"/>
<path d="M688.342 201.552C688.751 201.552 689.083 201.261 689.083 200.902C689.083 200.542 688.751 200.251 688.342 200.251C687.933 200.251 687.601 200.542 687.601 200.902C687.601 201.261 687.933 201.552 688.342 201.552Z" fill="#8643DC"/>
<path d="M684.45 204.803C684.86 204.803 685.192 204.512 685.192 204.153C685.192 203.794 684.86 203.503 684.45 203.503C684.041 203.503 683.709 203.794 683.709 204.153C683.709 204.512 684.041 204.803 684.45 204.803Z" fill="#8643DC"/>
<path d="M742.08 163.186C742.489 163.186 742.821 162.895 742.821 162.536C742.821 162.177 742.489 161.886 742.08 161.886C741.67 161.886 741.339 162.177 741.339 162.536C741.339 162.895 741.67 163.186 742.08 163.186Z" fill="#8643DC"/>
<path d="M738.374 166.438C738.783 166.438 739.115 166.146 739.115 165.787C739.115 165.428 738.783 165.137 738.374 165.137C737.964 165.137 737.633 165.428 737.633 165.787C737.633 166.146 737.964 166.438 738.374 166.438Z" fill="#8643DC"/>
<path d="M734.483 169.689C734.892 169.689 735.224 169.398 735.224 169.038C735.224 168.679 734.892 168.388 734.483 168.388C734.073 168.388 733.741 168.679 733.741 169.038C733.741 169.398 734.073 169.689 734.483 169.689Z" fill="#8643DC"/>
<path d="M730.776 172.94C731.186 172.94 731.518 172.649 731.518 172.29C731.518 171.931 731.186 171.64 730.776 171.64C730.367 171.64 730.035 171.931 730.035 172.29C730.035 172.649 730.367 172.94 730.776 172.94Z" fill="#8643DC"/>
<path d="M726.885 176.192C727.294 176.192 727.626 175.9 727.626 175.541C727.626 175.182 727.294 174.891 726.885 174.891C726.476 174.891 726.144 175.182 726.144 175.541C726.144 175.9 726.476 176.192 726.885 176.192Z" fill="#8643DC"/>
<path d="M723.179 179.443C723.588 179.443 723.92 179.152 723.92 178.793C723.92 178.433 723.588 178.142 723.179 178.142C722.77 178.142 722.438 178.433 722.438 178.793C722.438 179.152 722.77 179.443 723.179 179.443Z" fill="#8643DC"/>
<path d="M719.288 182.694C719.697 182.694 720.029 182.403 720.029 182.044C720.029 181.685 719.697 181.394 719.288 181.394C718.878 181.394 718.546 181.685 718.546 182.044C718.546 182.403 718.878 182.694 719.288 182.694Z" fill="#8643DC"/>
<path d="M715.581 185.945C715.991 185.945 716.323 185.654 716.323 185.295C716.323 184.936 715.991 184.645 715.581 184.645C715.172 184.645 714.84 184.936 714.84 185.295C714.84 185.654 715.172 185.945 715.581 185.945Z" fill="#8643DC"/>
<path d="M711.69 189.197C712.099 189.197 712.431 188.906 712.431 188.546C712.431 188.187 712.099 187.896 711.69 187.896C711.281 187.896 710.949 188.187 710.949 188.546C710.949 188.906 711.281 189.197 711.69 189.197Z" fill="#8643DC"/>
<path d="M707.984 192.448C708.393 192.448 708.725 192.157 708.725 191.798C708.725 191.439 708.393 191.148 707.984 191.148C707.575 191.148 707.243 191.439 707.243 191.798C707.243 192.157 707.575 192.448 707.984 192.448Z" fill="#8643DC"/>
<path d="M704.093 195.699C704.502 195.699 704.834 195.408 704.834 195.049C704.834 194.69 704.502 194.399 704.093 194.399C703.683 194.399 703.351 194.69 703.351 195.049C703.351 195.408 703.683 195.699 704.093 195.699Z" fill="#8643DC"/>
<path d="M700.386 198.951C700.796 198.951 701.128 198.66 701.128 198.301C701.128 197.942 700.796 197.65 700.386 197.65C699.977 197.65 699.645 197.942 699.645 198.301C699.645 198.66 699.977 198.951 700.386 198.951Z" fill="#8643DC"/>
<path d="M696.495 202.202C696.905 202.202 697.236 201.911 697.236 201.552C697.236 201.193 696.905 200.902 696.495 200.902C696.086 200.902 695.754 201.193 695.754 201.552C695.754 201.911 696.086 202.202 696.495 202.202Z" fill="#8643DC"/>
<path d="M692.789 205.454C693.199 205.454 693.53 205.162 693.53 204.803C693.53 204.444 693.199 204.153 692.789 204.153C692.38 204.153 692.048 204.444 692.048 204.803C692.048 205.162 692.38 205.454 692.789 205.454Z" fill="#8643DC"/>
<path d="M688.898 208.867C689.307 208.867 689.639 208.576 689.639 208.217C689.639 207.858 689.307 207.567 688.898 207.567C688.488 207.567 688.156 207.858 688.156 208.217C688.156 208.576 688.488 208.867 688.898 208.867Z" fill="#8643DC"/>
<path d="M746.527 167.088C746.937 167.088 747.268 166.797 747.268 166.437C747.268 166.078 746.937 165.787 746.527 165.787C746.118 165.787 745.786 166.078 745.786 166.437C745.786 166.797 746.118 167.088 746.527 167.088Z" fill="#8643DC"/>
<path d="M742.636 170.339C743.045 170.339 743.377 170.048 743.377 169.689C743.377 169.33 743.045 169.038 742.636 169.038C742.226 169.038 741.895 169.33 741.895 169.689C741.895 170.048 742.226 170.339 742.636 170.339Z" fill="#8643DC"/>
<path d="M738.93 173.59C739.339 173.59 739.671 173.299 739.671 172.94C739.671 172.581 739.339 172.29 738.93 172.29C738.52 172.29 738.188 172.581 738.188 172.94C738.188 173.299 738.52 173.59 738.93 173.59Z" fill="#8643DC"/>
<path d="M735.038 176.842C735.448 176.842 735.78 176.551 735.78 176.191C735.78 175.832 735.448 175.541 735.038 175.541C734.629 175.541 734.297 175.832 734.297 176.191C734.297 176.551 734.629 176.842 735.038 176.842Z" fill="#8643DC"/>
<path d="M731.332 180.093C731.742 180.093 732.073 179.802 732.073 179.443C732.073 179.084 731.742 178.793 731.332 178.793C730.923 178.793 730.591 179.084 730.591 179.443C730.591 179.802 730.923 180.093 731.332 180.093Z" fill="#8643DC"/>
<path d="M727.441 183.344C727.85 183.344 728.182 183.053 728.182 182.694C728.182 182.335 727.85 182.044 727.441 182.044C727.031 182.044 726.7 182.335 726.7 182.694C726.7 183.053 727.031 183.344 727.441 183.344Z" fill="#8643DC"/>
<path d="M723.735 186.596C724.144 186.596 724.476 186.305 724.476 185.945C724.476 185.586 724.144 185.295 723.735 185.295C723.325 185.295 722.994 185.586 722.994 185.945C722.994 186.305 723.325 186.596 723.735 186.596Z" fill="#8643DC"/>
<path d="M719.843 189.847C720.253 189.847 720.585 189.556 720.585 189.197C720.585 188.838 720.253 188.547 719.843 188.547C719.434 188.547 719.102 188.838 719.102 189.197C719.102 189.556 719.434 189.847 719.843 189.847Z" fill="#8643DC"/>
<path d="M716.137 193.098C716.547 193.098 716.879 192.807 716.879 192.448C716.879 192.089 716.547 191.798 716.137 191.798C715.728 191.798 715.396 192.089 715.396 192.448C715.396 192.807 715.728 193.098 716.137 193.098Z" fill="#8643DC"/>
<path d="M712.246 196.35C712.655 196.35 712.987 196.059 712.987 195.7C712.987 195.34 712.655 195.049 712.246 195.049C711.837 195.049 711.505 195.34 711.505 195.7C711.505 196.059 711.837 196.35 712.246 196.35Z" fill="#8643DC"/>
<path d="M708.54 199.601C708.949 199.601 709.281 199.31 709.281 198.951C709.281 198.592 708.949 198.301 708.54 198.301C708.131 198.301 707.799 198.592 707.799 198.951C707.799 199.31 708.131 199.601 708.54 199.601Z" fill="#8643DC"/>
<path d="M704.649 202.852C705.058 202.852 705.39 202.561 705.39 202.202C705.39 201.843 705.058 201.552 704.649 201.552C704.239 201.552 703.907 201.843 703.907 202.202C703.907 202.561 704.239 202.852 704.649 202.852Z" fill="#8643DC"/>
<path d="M700.942 206.266C701.352 206.266 701.684 205.975 701.684 205.616C701.684 205.257 701.352 204.966 700.942 204.966C700.533 204.966 700.201 205.257 700.201 205.616C700.201 205.975 700.533 206.266 700.942 206.266Z" fill="#8643DC"/>
<path d="M697.051 209.518C697.46 209.518 697.792 209.227 697.792 208.867C697.792 208.508 697.46 208.217 697.051 208.217C696.642 208.217 696.31 208.508 696.31 208.867C696.31 209.227 696.642 209.518 697.051 209.518Z" fill="#8643DC"/>
<path d="M693.345 212.769C693.754 212.769 694.086 212.478 694.086 212.119C694.086 211.76 693.754 211.469 693.345 211.469C692.936 211.469 692.604 211.76 692.604 212.119C692.604 212.478 692.936 212.769 693.345 212.769Z" fill="#8643DC"/>
<path d="M750.974 170.989C751.384 170.989 751.716 170.698 751.716 170.339C751.716 169.98 751.384 169.689 750.974 169.689C750.565 169.689 750.233 169.98 750.233 170.339C750.233 170.698 750.565 170.989 750.974 170.989Z" fill="#8643DC"/>
<path d="M747.083 174.241C747.492 174.241 747.824 173.95 747.824 173.59C747.824 173.231 747.492 172.94 747.083 172.94C746.674 172.94 746.342 173.231 746.342 173.59C746.342 173.95 746.674 174.241 747.083 174.241Z" fill="#8643DC"/>
<path d="M743.377 177.492C743.786 177.492 744.118 177.201 744.118 176.842C744.118 176.483 743.786 176.192 743.377 176.192C742.968 176.192 742.636 176.483 742.636 176.842C742.636 177.201 742.968 177.492 743.377 177.492Z" fill="#8643DC"/>
<path d="M739.486 180.743C739.895 180.743 740.227 180.452 740.227 180.093C740.227 179.734 739.895 179.443 739.486 179.443C739.076 179.443 738.744 179.734 738.744 180.093C738.744 180.452 739.076 180.743 739.486 180.743Z" fill="#8643DC"/>
<path d="M735.594 183.995C736.004 183.995 736.335 183.704 736.335 183.344C736.335 182.985 736.004 182.694 735.594 182.694C735.185 182.694 734.853 182.985 734.853 183.344C734.853 183.704 735.185 183.995 735.594 183.995Z" fill="#8643DC"/>
<path d="M731.888 187.246C732.298 187.246 732.629 186.955 732.629 186.596C732.629 186.237 732.298 185.946 731.888 185.946C731.479 185.946 731.147 186.237 731.147 186.596C731.147 186.955 731.479 187.246 731.888 187.246Z" fill="#8643DC"/>
<path d="M727.997 190.497C728.406 190.497 728.738 190.206 728.738 189.847C728.738 189.488 728.406 189.197 727.997 189.197C727.587 189.197 727.256 189.488 727.256 189.847C727.256 190.206 727.587 190.497 727.997 190.497Z" fill="#8643DC"/>
<path d="M724.291 193.749C724.7 193.749 725.032 193.458 725.032 193.098C725.032 192.739 724.7 192.448 724.291 192.448C723.881 192.448 723.55 192.739 723.55 193.098C723.55 193.458 723.881 193.749 724.291 193.749Z" fill="#8643DC"/>
<path d="M720.399 197C720.809 197 721.141 196.709 721.141 196.35C721.141 195.991 720.809 195.7 720.399 195.7C719.99 195.7 719.658 195.991 719.658 196.35C719.658 196.709 719.99 197 720.399 197Z" fill="#8643DC"/>
<path d="M716.693 200.251C717.103 200.251 717.434 199.96 717.434 199.601C717.434 199.242 717.103 198.951 716.693 198.951C716.284 198.951 715.952 199.242 715.952 199.601C715.952 199.96 716.284 200.251 716.693 200.251Z" fill="#8643DC"/>
<path d="M712.802 203.665C713.211 203.665 713.543 203.374 713.543 203.015C713.543 202.656 713.211 202.365 712.802 202.365C712.393 202.365 712.061 202.656 712.061 203.015C712.061 203.374 712.393 203.665 712.802 203.665Z" fill="#8643DC"/>
<path d="M709.096 206.917C709.505 206.917 709.837 206.626 709.837 206.266C709.837 205.907 709.505 205.616 709.096 205.616C708.686 205.616 708.355 205.907 708.355 206.266C708.355 206.626 708.686 206.917 709.096 206.917Z" fill="#8643DC"/>
<path d="M705.204 210.168C705.614 210.168 705.946 209.877 705.946 209.518C705.946 209.159 705.614 208.867 705.204 208.867C704.795 208.867 704.463 209.159 704.463 209.518C704.463 209.877 704.795 210.168 705.204 210.168Z" fill="#8643DC"/>
<path d="M701.498 213.419C701.908 213.419 702.239 213.128 702.239 212.769C702.239 212.41 701.908 212.119 701.498 212.119C701.089 212.119 700.757 212.41 700.757 212.769C700.757 213.128 701.089 213.419 701.498 213.419Z" fill="#8643DC"/>
<path d="M697.607 216.671C698.016 216.671 698.348 216.38 698.348 216.02C698.348 215.661 698.016 215.37 697.607 215.37C697.198 215.37 696.866 215.661 696.866 216.02C696.866 216.38 697.198 216.671 697.607 216.671Z" fill="#8643DC"/>
<path d="M755.236 174.891C755.646 174.891 755.978 174.6 755.978 174.241C755.978 173.882 755.646 173.59 755.236 173.59C754.827 173.59 754.495 173.882 754.495 174.241C754.495 174.6 754.827 174.891 755.236 174.891Z" fill="#8643DC"/>
<path d="M751.531 178.142C751.94 178.142 752.272 177.851 752.272 177.492C752.272 177.133 751.94 176.842 751.531 176.842C751.121 176.842 750.789 177.133 750.789 177.492C750.789 177.851 751.121 178.142 751.531 178.142Z" fill="#8643DC"/>
<path d="M747.639 181.394C748.048 181.394 748.38 181.103 748.38 180.743C748.38 180.384 748.048 180.093 747.639 180.093C747.23 180.093 746.898 180.384 746.898 180.743C746.898 181.103 747.23 181.394 747.639 181.394Z" fill="#8643DC"/>
<path d="M743.933 184.645C744.342 184.645 744.674 184.354 744.674 183.995C744.674 183.635 744.342 183.344 743.933 183.344C743.523 183.344 743.192 183.635 743.192 183.995C743.192 184.354 743.523 184.645 743.933 184.645Z" fill="#8643DC"/>
<path d="M740.042 187.896C740.451 187.896 740.783 187.605 740.783 187.246C740.783 186.887 740.451 186.596 740.042 186.596C739.632 186.596 739.3 186.887 739.3 187.246C739.3 187.605 739.632 187.896 740.042 187.896Z" fill="#8643DC"/>
<path d="M736.335 191.148C736.745 191.148 737.077 190.857 737.077 190.497C737.077 190.138 736.745 189.847 736.335 189.847C735.926 189.847 735.594 190.138 735.594 190.497C735.594 190.857 735.926 191.148 736.335 191.148Z" fill="#8643DC"/>
<path d="M732.444 194.399C732.854 194.399 733.185 194.108 733.185 193.749C733.185 193.39 732.854 193.099 732.444 193.099C732.035 193.099 731.703 193.39 731.703 193.749C731.703 194.108 732.035 194.399 732.444 194.399Z" fill="#8643DC"/>
<path d="M728.738 197.65C729.148 197.65 729.479 197.359 729.479 197C729.479 196.641 729.148 196.35 728.738 196.35C728.329 196.35 727.997 196.641 727.997 197C727.997 197.359 728.329 197.65 728.738 197.65Z" fill="#8643DC"/>
<path d="M724.847 200.902C725.256 200.902 725.588 200.61 725.588 200.251C725.588 199.892 725.256 199.601 724.847 199.601C724.437 199.601 724.106 199.892 724.106 200.251C724.106 200.61 724.437 200.902 724.847 200.902Z" fill="#8643DC"/>
<path d="M720.955 204.316C721.365 204.316 721.697 204.024 721.697 203.665C721.697 203.306 721.365 203.015 720.955 203.015C720.546 203.015 720.214 203.306 720.214 203.665C720.214 204.024 720.546 204.316 720.955 204.316Z" fill="#8643DC"/>
<path d="M717.249 207.567C717.659 207.567 717.99 207.276 717.99 206.917C717.99 206.557 717.659 206.266 717.249 206.266C716.84 206.266 716.508 206.557 716.508 206.917C716.508 207.276 716.84 207.567 717.249 207.567Z" fill="#8643DC"/>
<path d="M713.358 210.818C713.767 210.818 714.099 210.527 714.099 210.168C714.099 209.809 713.767 209.518 713.358 209.518C712.948 209.518 712.617 209.809 712.617 210.168C712.617 210.527 712.948 210.818 713.358 210.818Z" fill="#8643DC"/>
<path d="M709.652 214.07C710.061 214.07 710.393 213.778 710.393 213.419C710.393 213.06 710.061 212.769 709.652 212.769C709.242 212.769 708.911 213.06 708.911 213.419C708.911 213.778 709.242 214.07 709.652 214.07Z" fill="#8643DC"/>
<path d="M705.76 217.321C706.17 217.321 706.502 217.03 706.502 216.671C706.502 216.312 706.17 216.02 705.76 216.02C705.351 216.02 705.019 216.312 705.019 216.671C705.019 217.03 705.351 217.321 705.76 217.321Z" fill="#8643DC"/>
<path d="M702.054 220.572C702.464 220.572 702.796 220.281 702.796 219.922C702.796 219.563 702.464 219.272 702.054 219.272C701.645 219.272 701.313 219.563 701.313 219.922C701.313 220.281 701.645 220.572 702.054 220.572Z" fill="#8643DC"/>
<path d="M759.684 178.793C760.093 178.793 760.425 178.501 760.425 178.142C760.425 177.783 760.093 177.492 759.684 177.492C759.274 177.492 758.943 177.783 758.943 178.142C758.943 178.501 759.274 178.793 759.684 178.793Z" fill="#8643DC"/>
<path d="M755.792 182.044C756.202 182.044 756.534 181.753 756.534 181.394C756.534 181.035 756.202 180.743 755.792 180.743C755.383 180.743 755.051 181.035 755.051 181.394C755.051 181.753 755.383 182.044 755.792 182.044Z" fill="#8643DC"/>
<path d="M752.086 185.295C752.496 185.295 752.828 185.004 752.828 184.645C752.828 184.286 752.496 183.995 752.086 183.995C751.677 183.995 751.345 184.286 751.345 184.645C751.345 185.004 751.677 185.295 752.086 185.295Z" fill="#8643DC"/>
<path d="M748.195 188.546C748.604 188.546 748.936 188.255 748.936 187.896C748.936 187.537 748.604 187.246 748.195 187.246C747.786 187.246 747.454 187.537 747.454 187.896C747.454 188.255 747.786 188.546 748.195 188.546Z" fill="#8643DC"/>
<path d="M744.489 191.798C744.898 191.798 745.23 191.507 745.23 191.148C745.23 190.789 744.898 190.497 744.489 190.497C744.079 190.497 743.748 190.789 743.748 191.148C743.748 191.507 744.079 191.798 744.489 191.798Z" fill="#8643DC"/>
<path d="M740.598 195.049C741.007 195.049 741.339 194.758 741.339 194.399C741.339 194.04 741.007 193.749 740.598 193.749C740.188 193.749 739.856 194.04 739.856 194.399C739.856 194.758 740.188 195.049 740.598 195.049Z" fill="#8643DC"/>
<path d="M736.891 198.301C737.301 198.301 737.633 198.01 737.633 197.65C737.633 197.291 737.301 197 736.891 197C736.482 197 736.15 197.291 736.15 197.65C736.15 198.01 736.482 198.301 736.891 198.301Z" fill="#8643DC"/>
<path d="M733 201.714C733.409 201.714 733.741 201.423 733.741 201.064C733.741 200.705 733.409 200.414 733 200.414C732.591 200.414 732.259 200.705 732.259 201.064C732.259 201.423 732.591 201.714 733 201.714Z" fill="#8643DC"/>
<path d="M729.294 204.966C729.703 204.966 730.035 204.675 730.035 204.316C730.035 203.956 729.703 203.665 729.294 203.665C728.885 203.665 728.553 203.956 728.553 204.316C728.553 204.675 728.885 204.966 729.294 204.966Z" fill="#8643DC"/>
<path d="M725.403 208.217C725.812 208.217 726.144 207.926 726.144 207.567C726.144 207.208 725.812 206.917 725.403 206.917C724.993 206.917 724.661 207.208 724.661 207.567C724.661 207.926 724.993 208.217 725.403 208.217Z" fill="#8643DC"/>
<path d="M721.696 211.468C722.106 211.468 722.438 211.177 722.438 210.818C722.438 210.459 722.106 210.168 721.696 210.168C721.287 210.168 720.955 210.459 720.955 210.818C720.955 211.177 721.287 211.468 721.696 211.468Z" fill="#8643DC"/>
<path d="M717.805 214.72C718.215 214.72 718.546 214.429 718.546 214.07C718.546 213.71 718.215 213.419 717.805 213.419C717.396 213.419 717.064 213.71 717.064 214.07C717.064 214.429 717.396 214.72 717.805 214.72Z" fill="#8643DC"/>
<path d="M714.099 217.971C714.508 217.971 714.84 217.68 714.84 217.321C714.84 216.962 714.508 216.671 714.099 216.671C713.69 216.671 713.358 216.962 713.358 217.321C713.358 217.68 713.69 217.971 714.099 217.971Z" fill="#8643DC"/>
<path d="M710.208 221.223C710.617 221.223 710.949 220.931 710.949 220.572C710.949 220.213 710.617 219.922 710.208 219.922C709.798 219.922 709.466 220.213 709.466 220.572C709.466 220.931 709.798 221.223 710.208 221.223Z" fill="#8643DC"/>
<path d="M706.502 224.474C706.911 224.474 707.243 224.183 707.243 223.824C707.243 223.464 706.911 223.173 706.502 223.173C706.092 223.173 705.76 223.464 705.76 223.824C705.76 224.183 706.092 224.474 706.502 224.474Z" fill="#8643DC"/>
<path d="M763.945 182.694C764.355 182.694 764.687 182.403 764.687 182.044C764.687 181.685 764.355 181.394 763.945 181.394C763.536 181.394 763.204 181.685 763.204 182.044C763.204 182.403 763.536 182.694 763.945 182.694Z" fill="#8643DC"/>
<path d="M760.239 185.945C760.649 185.945 760.981 185.654 760.981 185.295C760.981 184.936 760.649 184.645 760.239 184.645C759.83 184.645 759.498 184.936 759.498 185.295C759.498 185.654 759.83 185.945 760.239 185.945Z" fill="#8643DC"/>
<path d="M756.348 189.197C756.757 189.197 757.089 188.906 757.089 188.546C757.089 188.187 756.757 187.896 756.348 187.896C755.939 187.896 755.607 188.187 755.607 188.546C755.607 188.906 755.939 189.197 756.348 189.197Z" fill="#8643DC"/>
<path d="M752.642 192.448C753.051 192.448 753.383 192.157 753.383 191.798C753.383 191.439 753.051 191.148 752.642 191.148C752.233 191.148 751.901 191.439 751.901 191.798C751.901 192.157 752.233 192.448 752.642 192.448Z" fill="#8643DC"/>
<path d="M748.751 195.7C749.16 195.7 749.492 195.408 749.492 195.049C749.492 194.69 749.16 194.399 748.751 194.399C748.341 194.399 748.01 194.69 748.01 195.049C748.01 195.408 748.341 195.7 748.751 195.7Z" fill="#8643DC"/>
<path d="M745.045 199.113C745.454 199.113 745.786 198.822 745.786 198.463C745.786 198.104 745.454 197.813 745.045 197.813C744.635 197.813 744.303 198.104 744.303 198.463C744.303 198.822 744.635 199.113 745.045 199.113Z" fill="#8643DC"/>
<path d="M741.153 202.365C741.563 202.365 741.895 202.074 741.895 201.714C741.895 201.355 741.563 201.064 741.153 201.064C740.744 201.064 740.412 201.355 740.412 201.714C740.412 202.074 740.744 202.365 741.153 202.365Z" fill="#8643DC"/>
<path d="M737.447 205.616C737.857 205.616 738.188 205.325 738.188 204.966C738.188 204.607 737.857 204.316 737.447 204.316C737.038 204.316 736.706 204.607 736.706 204.966C736.706 205.325 737.038 205.616 737.447 205.616Z" fill="#8643DC"/>
<path d="M733.556 208.867C733.965 208.867 734.297 208.576 734.297 208.217C734.297 207.858 733.965 207.567 733.556 207.567C733.146 207.567 732.815 207.858 732.815 208.217C732.815 208.576 733.146 208.867 733.556 208.867Z" fill="#8643DC"/>
<path d="M729.85 212.119C730.259 212.119 730.591 211.828 730.591 211.468C730.591 211.109 730.259 210.818 729.85 210.818C729.44 210.818 729.109 211.109 729.109 211.468C729.109 211.828 729.44 212.119 729.85 212.119Z" fill="#8643DC"/>
<path d="M725.958 215.37C726.368 215.37 726.7 215.079 726.7 214.72C726.7 214.361 726.368 214.069 725.958 214.069C725.549 214.069 725.217 214.361 725.217 214.72C725.217 215.079 725.549 215.37 725.958 215.37Z" fill="#8643DC"/>
<path d="M722.252 218.621C722.662 218.621 722.993 218.33 722.993 217.971C722.993 217.612 722.662 217.321 722.252 217.321C721.843 217.321 721.511 217.612 721.511 217.971C721.511 218.33 721.843 218.621 722.252 218.621Z" fill="#8643DC"/>
<path d="M718.361 221.873C718.77 221.873 719.102 221.582 719.102 221.223C719.102 220.863 718.77 220.572 718.361 220.572C717.951 220.572 717.62 220.863 717.62 221.223C717.62 221.582 717.951 221.873 718.361 221.873Z" fill="#8643DC"/>
<path d="M714.655 225.124C715.064 225.124 715.396 224.833 715.396 224.474C715.396 224.115 715.064 223.824 714.655 223.824C714.246 223.824 713.914 224.115 713.914 224.474C713.914 224.833 714.246 225.124 714.655 225.124Z" fill="#8643DC"/>
<path d="M710.763 228.375C711.173 228.375 711.505 228.084 711.505 227.725C711.505 227.366 711.173 227.075 710.763 227.075C710.354 227.075 710.022 227.366 710.022 227.725C710.022 228.084 710.354 228.375 710.763 228.375Z" fill="#8643DC"/>
<path d="M768.393 186.596C768.802 186.596 769.134 186.305 769.134 185.945C769.134 185.586 768.802 185.295 768.393 185.295C767.984 185.295 767.652 185.586 767.652 185.945C767.652 186.305 767.984 186.596 768.393 186.596Z" fill="#8643DC"/>
<path d="M764.687 189.847C765.096 189.847 765.428 189.556 765.428 189.197C765.428 188.838 765.096 188.547 764.687 188.547C764.278 188.547 763.946 188.838 763.946 189.197C763.946 189.556 764.278 189.847 764.687 189.847Z" fill="#8643DC"/>
<path d="M760.796 193.098C761.205 193.098 761.537 192.807 761.537 192.448C761.537 192.089 761.205 191.798 760.796 191.798C760.386 191.798 760.054 192.089 760.054 192.448C760.054 192.807 760.386 193.098 760.796 193.098Z" fill="#8643DC"/>
<path d="M757.089 196.512C757.499 196.512 757.831 196.221 757.831 195.862C757.831 195.503 757.499 195.212 757.089 195.212C756.68 195.212 756.348 195.503 756.348 195.862C756.348 196.221 756.68 196.512 757.089 196.512Z" fill="#8643DC"/>
<path d="M753.198 199.764C753.607 199.764 753.939 199.473 753.939 199.113C753.939 198.754 753.607 198.463 753.198 198.463C752.789 198.463 752.457 198.754 752.457 199.113C752.457 199.473 752.789 199.764 753.198 199.764Z" fill="#8643DC"/>
<path d="M749.307 203.015C749.716 203.015 750.048 202.724 750.048 202.365C750.048 202.006 749.716 201.714 749.307 201.714C748.897 201.714 748.566 202.006 748.566 202.365C748.566 202.724 748.897 203.015 749.307 203.015Z" fill="#8643DC"/>
<path d="M745.601 206.266C746.01 206.266 746.342 205.975 746.342 205.616C746.342 205.257 746.01 204.966 745.601 204.966C745.191 204.966 744.859 205.257 744.859 205.616C744.859 205.975 745.191 206.266 745.601 206.266Z" fill="#8643DC"/>
<path d="M741.709 209.518C742.119 209.518 742.45 209.227 742.45 208.867C742.45 208.508 742.119 208.217 741.709 208.217C741.3 208.217 740.968 208.508 740.968 208.867C740.968 209.227 741.3 209.518 741.709 209.518Z" fill="#8643DC"/>
<path d="M738.003 212.769C738.413 212.769 738.744 212.478 738.744 212.119C738.744 211.76 738.413 211.469 738.003 211.469C737.594 211.469 737.262 211.76 737.262 212.119C737.262 212.478 737.594 212.769 738.003 212.769Z" fill="#8643DC"/>
<path d="M734.112 216.02C734.521 216.02 734.853 215.729 734.853 215.37C734.853 215.011 734.521 214.72 734.112 214.72C733.702 214.72 733.371 215.011 733.371 215.37C733.371 215.729 733.702 216.02 734.112 216.02Z" fill="#8643DC"/>
<path d="M730.406 219.272C730.815 219.272 731.147 218.981 731.147 218.621C731.147 218.262 730.815 217.971 730.406 217.971C729.997 217.971 729.665 218.262 729.665 218.621C729.665 218.981 729.997 219.272 730.406 219.272Z" fill="#8643DC"/>
<path d="M726.514 222.523C726.924 222.523 727.255 222.232 727.255 221.873C727.255 221.514 726.924 221.223 726.514 221.223C726.105 221.223 725.773 221.514 725.773 221.873C725.773 222.232 726.105 222.523 726.514 222.523Z" fill="#8643DC"/>
<path d="M722.808 225.774C723.218 225.774 723.549 225.483 723.549 225.124C723.549 224.765 723.218 224.474 722.808 224.474C722.399 224.474 722.067 224.765 722.067 225.124C722.067 225.483 722.399 225.774 722.808 225.774Z" fill="#8643DC"/>
<path d="M718.917 229.026C719.326 229.026 719.658 228.734 719.658 228.375C719.658 228.016 719.326 227.725 718.917 227.725C718.508 227.725 718.176 228.016 718.176 228.375C718.176 228.734 718.508 229.026 718.917 229.026Z" fill="#8643DC"/>
<path d="M715.211 232.277C715.62 232.277 715.952 231.986 715.952 231.627C715.952 231.268 715.62 230.976 715.211 230.976C714.802 230.976 714.47 231.268 714.47 231.627C714.47 231.986 714.802 232.277 715.211 232.277Z" fill="#8643DC"/>
<path d="M772.84 190.497C773.25 190.497 773.581 190.206 773.581 189.847C773.581 189.488 773.25 189.197 772.84 189.197C772.431 189.197 772.099 189.488 772.099 189.847C772.099 190.206 772.431 190.497 772.84 190.497Z" fill="#8643DC"/>
<path d="M768.949 193.911C769.358 193.911 769.69 193.62 769.69 193.261C769.69 192.902 769.358 192.611 768.949 192.611C768.539 192.611 768.208 192.902 768.208 193.261C768.208 193.62 768.539 193.911 768.949 193.911Z" fill="#8643DC"/>
<path d="M765.243 197.163C765.652 197.163 765.984 196.872 765.984 196.512C765.984 196.153 765.652 195.862 765.243 195.862C764.833 195.862 764.502 196.153 764.502 196.512C764.502 196.872 764.833 197.163 765.243 197.163Z" fill="#8643DC"/>
<path d="M761.352 200.414C761.761 200.414 762.093 200.123 762.093 199.764C762.093 199.405 761.761 199.113 761.352 199.113C760.942 199.113 760.61 199.405 760.61 199.764C760.61 200.123 760.942 200.414 761.352 200.414Z" fill="#8643DC"/>
<path d="M757.645 203.665C758.055 203.665 758.387 203.374 758.387 203.015C758.387 202.656 758.055 202.365 757.645 202.365C757.236 202.365 756.904 202.656 756.904 203.015C756.904 203.374 757.236 203.665 757.645 203.665Z" fill="#8643DC"/>
<path d="M753.754 206.917C754.163 206.917 754.495 206.626 754.495 206.266C754.495 205.907 754.163 205.616 753.754 205.616C753.345 205.616 753.013 205.907 753.013 206.266C753.013 206.626 753.345 206.917 753.754 206.917Z" fill="#8643DC"/>
<path d="M750.048 210.168C750.457 210.168 750.789 209.877 750.789 209.518C750.789 209.159 750.457 208.867 750.048 208.867C749.639 208.867 749.307 209.159 749.307 209.518C749.307 209.877 749.639 210.168 750.048 210.168Z" fill="#8643DC"/>
<path d="M746.157 213.419C746.566 213.419 746.898 213.128 746.898 212.769C746.898 212.41 746.566 212.119 746.157 212.119C745.747 212.119 745.415 212.41 745.415 212.769C745.415 213.128 745.747 213.419 746.157 213.419Z" fill="#8643DC"/>
<path d="M742.45 216.671C742.86 216.671 743.192 216.38 743.192 216.02C743.192 215.661 742.86 215.37 742.45 215.37C742.041 215.37 741.709 215.661 741.709 216.02C741.709 216.38 742.041 216.671 742.45 216.671Z" fill="#8643DC"/>
<path d="M738.559 219.922C738.968 219.922 739.3 219.631 739.3 219.272C739.3 218.913 738.968 218.621 738.559 218.621C738.15 218.621 737.818 218.913 737.818 219.272C737.818 219.631 738.15 219.922 738.559 219.922Z" fill="#8643DC"/>
<path d="M734.668 223.173C735.077 223.173 735.409 222.882 735.409 222.523C735.409 222.164 735.077 221.873 734.668 221.873C734.258 221.873 733.927 222.164 733.927 222.523C733.927 222.882 734.258 223.173 734.668 223.173Z" fill="#8643DC"/>
<path d="M730.962 226.425C731.371 226.425 731.703 226.134 731.703 225.774C731.703 225.415 731.371 225.124 730.962 225.124C730.552 225.124 730.22 225.415 730.22 225.774C730.22 226.134 730.552 226.425 730.962 226.425Z" fill="#8643DC"/>
<path d="M727.07 229.676C727.48 229.676 727.812 229.385 727.812 229.026C727.812 228.667 727.48 228.375 727.07 228.375C726.661 228.375 726.329 228.667 726.329 229.026C726.329 229.385 726.661 229.676 727.07 229.676Z" fill="#8643DC"/>
<path d="M723.364 232.927C723.774 232.927 724.106 232.636 724.106 232.277C724.106 231.918 723.774 231.627 723.364 231.627C722.955 231.627 722.623 231.918 722.623 232.277C722.623 232.636 722.955 232.927 723.364 232.927Z" fill="#8643DC"/>
<path d="M719.473 236.179C719.882 236.179 720.214 235.888 720.214 235.528C720.214 235.169 719.882 234.878 719.473 234.878C719.064 234.878 718.732 235.169 718.732 235.528C718.732 235.888 719.064 236.179 719.473 236.179Z" fill="#8643DC"/>
<path d="M777.102 194.562C777.512 194.562 777.844 194.27 777.844 193.911C777.844 193.552 777.512 193.261 777.102 193.261C776.693 193.261 776.361 193.552 776.361 193.911C776.361 194.27 776.693 194.562 777.102 194.562Z" fill="#8643DC"/>
<path d="M773.396 197.813C773.805 197.813 774.137 197.522 774.137 197.163C774.137 196.803 773.805 196.512 773.396 196.512C772.987 196.512 772.655 196.803 772.655 197.163C772.655 197.522 772.987 197.813 773.396 197.813Z" fill="#8643DC"/>
<path d="M769.505 201.064C769.914 201.064 770.246 200.773 770.246 200.414C770.246 200.055 769.914 199.764 769.505 199.764C769.095 199.764 768.764 200.055 768.764 200.414C768.764 200.773 769.095 201.064 769.505 201.064Z" fill="#8643DC"/>
<path d="M765.799 204.316C766.208 204.316 766.54 204.024 766.54 203.665C766.54 203.306 766.208 203.015 765.799 203.015C765.389 203.015 765.057 203.306 765.057 203.665C765.057 204.024 765.389 204.316 765.799 204.316Z" fill="#8643DC"/>
<path d="M761.907 207.567C762.317 207.567 762.649 207.276 762.649 206.917C762.649 206.558 762.317 206.266 761.907 206.266C761.498 206.266 761.166 206.558 761.166 206.917C761.166 207.276 761.498 207.567 761.907 207.567Z" fill="#8643DC"/>
<path d="M758.201 210.818C758.611 210.818 758.942 210.527 758.942 210.168C758.942 209.809 758.611 209.518 758.201 209.518C757.792 209.518 757.46 209.809 757.46 210.168C757.46 210.527 757.792 210.818 758.201 210.818Z" fill="#8643DC"/>
<path d="M754.31 214.07C754.719 214.07 755.051 213.778 755.051 213.419C755.051 213.06 754.719 212.769 754.31 212.769C753.9 212.769 753.569 213.06 753.569 213.419C753.569 213.778 753.9 214.07 754.31 214.07Z" fill="#8643DC"/>
<path d="M750.604 217.321C751.013 217.321 751.345 217.03 751.345 216.671C751.345 216.312 751.013 216.02 750.604 216.02C750.194 216.02 749.863 216.312 749.863 216.671C749.863 217.03 750.194 217.321 750.604 217.321Z" fill="#8643DC"/>
<path d="M746.713 220.572C747.122 220.572 747.454 220.281 747.454 219.922C747.454 219.563 747.122 219.272 746.713 219.272C746.303 219.272 745.971 219.563 745.971 219.922C745.971 220.281 746.303 220.572 746.713 220.572Z" fill="#8643DC"/>
<path d="M743.006 223.824C743.416 223.824 743.748 223.532 743.748 223.173C743.748 222.814 743.416 222.523 743.006 222.523C742.597 222.523 742.265 222.814 742.265 223.173C742.265 223.532 742.597 223.824 743.006 223.824Z" fill="#8643DC"/>
<path d="M739.115 227.075C739.524 227.075 739.856 226.784 739.856 226.425C739.856 226.066 739.524 225.774 739.115 225.774C738.706 225.774 738.374 226.066 738.374 226.425C738.374 226.784 738.706 227.075 739.115 227.075Z" fill="#8643DC"/>
<path d="M735.409 230.326C735.818 230.326 736.15 230.035 736.15 229.676C736.15 229.317 735.818 229.026 735.409 229.026C735 229.026 734.668 229.317 734.668 229.676C734.668 230.035 735 230.326 735.409 230.326Z" fill="#8643DC"/>
<path d="M731.518 233.578C731.927 233.578 732.259 233.286 732.259 232.927C732.259 232.568 731.927 232.277 731.518 232.277C731.108 232.277 730.776 232.568 730.776 232.927C730.776 233.286 731.108 233.578 731.518 233.578Z" fill="#8643DC"/>
<path d="M727.811 236.829C728.221 236.829 728.553 236.538 728.553 236.179C728.553 235.82 728.221 235.528 727.811 235.528C727.402 235.528 727.07 235.82 727.07 236.179C727.07 236.538 727.402 236.829 727.811 236.829Z" fill="#8643DC"/>
<path d="M723.92 240.08C724.33 240.08 724.661 239.789 724.661 239.43C724.661 239.071 724.33 238.78 723.92 238.78C723.511 238.78 723.179 239.071 723.179 239.43C723.179 239.789 723.511 240.08 723.92 240.08Z" fill="#8643DC"/>
<path d="M781.549 198.463C781.959 198.463 782.291 198.172 782.291 197.813C782.291 197.454 781.959 197.163 781.549 197.163C781.14 197.163 780.808 197.454 780.808 197.813C780.808 198.172 781.14 198.463 781.549 198.463Z" fill="#8643DC"/>
<path d="M777.658 201.714C778.067 201.714 778.399 201.423 778.399 201.064C778.399 200.705 778.067 200.414 777.658 200.414C777.249 200.414 776.917 200.705 776.917 201.064C776.917 201.423 777.249 201.714 777.658 201.714Z" fill="#8643DC"/>
<path d="M773.952 204.966C774.361 204.966 774.693 204.675 774.693 204.316C774.693 203.956 774.361 203.665 773.952 203.665C773.543 203.665 773.211 203.956 773.211 204.316C773.211 204.675 773.543 204.966 773.952 204.966Z" fill="#8643DC"/>
<path d="M770.061 208.217C770.47 208.217 770.802 207.926 770.802 207.567C770.802 207.208 770.47 206.917 770.061 206.917C769.651 206.917 769.319 207.208 769.319 207.567C769.319 207.926 769.651 208.217 770.061 208.217Z" fill="#8643DC"/>
<path d="M766.355 211.468C766.764 211.468 767.096 211.177 767.096 210.818C767.096 210.459 766.764 210.168 766.355 210.168C765.945 210.168 765.613 210.459 765.613 210.818C765.613 211.177 765.945 211.468 766.355 211.468Z" fill="#8643DC"/>
<path d="M762.463 214.72C762.873 214.72 763.205 214.429 763.205 214.07C763.205 213.71 762.873 213.419 762.463 213.419C762.054 213.419 761.722 213.71 761.722 214.07C761.722 214.429 762.054 214.72 762.463 214.72Z" fill="#8643DC"/>
<path d="M758.757 217.971C759.167 217.971 759.498 217.68 759.498 217.321C759.498 216.962 759.167 216.671 758.757 216.671C758.348 216.671 758.016 216.962 758.016 217.321C758.016 217.68 758.348 217.971 758.757 217.971Z" fill="#8643DC"/>
<path d="M754.866 221.223C755.275 221.223 755.607 220.931 755.607 220.572C755.607 220.213 755.275 219.922 754.866 219.922C754.456 219.922 754.125 220.213 754.125 220.572C754.125 220.931 754.456 221.223 754.866 221.223Z" fill="#8643DC"/>
<path d="M751.16 224.474C751.569 224.474 751.901 224.183 751.901 223.824C751.901 223.464 751.569 223.173 751.16 223.173C750.75 223.173 750.419 223.464 750.419 223.824C750.419 224.183 750.75 224.474 751.16 224.474Z" fill="#8643DC"/>
<path d="M747.268 227.725C747.678 227.725 748.01 227.434 748.01 227.075C748.01 226.716 747.678 226.425 747.268 226.425C746.859 226.425 746.527 226.716 746.527 227.075C746.527 227.434 746.859 227.725 747.268 227.725Z" fill="#8643DC"/>
<path d="M743.562 230.977C743.972 230.977 744.303 230.685 744.303 230.326C744.303 229.967 743.972 229.676 743.562 229.676C743.153 229.676 742.821 229.967 742.821 230.326C742.821 230.685 743.153 230.977 743.562 230.977Z" fill="#8643DC"/>
<path d="M739.671 234.228C740.08 234.228 740.412 233.937 740.412 233.578C740.412 233.218 740.08 232.927 739.671 232.927C739.262 232.927 738.93 233.218 738.93 233.578C738.93 233.937 739.262 234.228 739.671 234.228Z" fill="#8643DC"/>
<path d="M735.965 237.479C736.374 237.479 736.706 237.188 736.706 236.829C736.706 236.47 736.374 236.179 735.965 236.179C735.555 236.179 735.224 236.47 735.224 236.829C735.224 237.188 735.555 237.479 735.965 237.479Z" fill="#8643DC"/>
<path d="M732.073 240.893C732.483 240.893 732.815 240.602 732.815 240.243C732.815 239.884 732.483 239.593 732.073 239.593C731.664 239.593 731.332 239.884 731.332 240.243C731.332 240.602 731.664 240.893 732.073 240.893Z" fill="#8643DC"/>
<path d="M728.367 244.144C728.777 244.144 729.109 243.853 729.109 243.494C729.109 243.135 728.777 242.844 728.367 242.844C727.958 242.844 727.626 243.135 727.626 243.494C727.626 243.853 727.958 244.144 728.367 244.144Z" fill="#8643DC"/>
<path d="M785.997 202.365C786.406 202.365 786.738 202.074 786.738 201.714C786.738 201.355 786.406 201.064 785.997 201.064C785.588 201.064 785.256 201.355 785.256 201.714C785.256 202.074 785.588 202.365 785.997 202.365Z" fill="#8643DC"/>
<path d="M782.106 205.616C782.515 205.616 782.847 205.325 782.847 204.966C782.847 204.607 782.515 204.316 782.106 204.316C781.696 204.316 781.364 204.607 781.364 204.966C781.364 205.325 781.696 205.616 782.106 205.616Z" fill="#8643DC"/>
<path d="M778.399 208.867C778.809 208.867 779.141 208.576 779.141 208.217C779.141 207.858 778.809 207.567 778.399 207.567C777.99 207.567 777.658 207.858 777.658 208.217C777.658 208.576 777.99 208.867 778.399 208.867Z" fill="#8643DC"/>
<path d="M774.508 212.119C774.917 212.119 775.249 211.828 775.249 211.468C775.249 211.109 774.917 210.818 774.508 210.818C774.099 210.818 773.767 211.109 773.767 211.468C773.767 211.828 774.099 212.119 774.508 212.119Z" fill="#8643DC"/>
<path d="M770.802 215.37C771.211 215.37 771.543 215.079 771.543 214.72C771.543 214.361 771.211 214.07 770.802 214.07C770.393 214.07 770.061 214.361 770.061 214.72C770.061 215.079 770.393 215.37 770.802 215.37Z" fill="#8643DC"/>
<path d="M766.911 218.621C767.32 218.621 767.652 218.33 767.652 217.971C767.652 217.612 767.32 217.321 766.911 217.321C766.501 217.321 766.169 217.612 766.169 217.971C766.169 218.33 766.501 218.621 766.911 218.621Z" fill="#8643DC"/>
<path d="M763.019 221.873C763.429 221.873 763.761 221.582 763.761 221.223C763.761 220.863 763.429 220.572 763.019 220.572C762.61 220.572 762.278 220.863 762.278 221.223C762.278 221.582 762.61 221.873 763.019 221.873Z" fill="#8643DC"/>
<path d="M759.313 225.124C759.723 225.124 760.054 224.833 760.054 224.474C760.054 224.115 759.723 223.824 759.313 223.824C758.904 223.824 758.572 224.115 758.572 224.474C758.572 224.833 758.904 225.124 759.313 225.124Z" fill="#8643DC"/>
<path d="M755.422 228.375C755.831 228.375 756.163 228.084 756.163 227.725C756.163 227.366 755.831 227.075 755.422 227.075C755.013 227.075 754.681 227.366 754.681 227.725C754.681 228.084 755.013 228.375 755.422 228.375Z" fill="#8643DC"/>
<path d="M751.716 231.627C752.125 231.627 752.457 231.336 752.457 230.976C752.457 230.617 752.125 230.326 751.716 230.326C751.306 230.326 750.975 230.617 750.975 230.976C750.975 231.336 751.306 231.627 751.716 231.627Z" fill="#8643DC"/>
<path d="M747.824 234.878C748.234 234.878 748.566 234.587 748.566 234.228C748.566 233.869 748.234 233.578 747.824 233.578C747.415 233.578 747.083 233.869 747.083 234.228C747.083 234.587 747.415 234.878 747.824 234.878Z" fill="#8643DC"/>
<path d="M744.118 238.292C744.528 238.292 744.859 238.001 744.859 237.642C744.859 237.283 744.528 236.992 744.118 236.992C743.709 236.992 743.377 237.283 743.377 237.642C743.377 238.001 743.709 238.292 744.118 238.292Z" fill="#8643DC"/>
<path d="M740.227 241.543C740.636 241.543 740.968 241.252 740.968 240.893C740.968 240.534 740.636 240.243 740.227 240.243C739.817 240.243 739.486 240.534 739.486 240.893C739.486 241.252 739.817 241.543 740.227 241.543Z" fill="#8643DC"/>
<path d="M736.521 244.795C736.93 244.795 737.262 244.504 737.262 244.144C737.262 243.785 736.93 243.494 736.521 243.494C736.111 243.494 735.78 243.785 735.78 244.144C735.78 244.504 736.111 244.795 736.521 244.795Z" fill="#8643DC"/>
<path d="M732.629 248.046C733.039 248.046 733.371 247.755 733.371 247.396C733.371 247.037 733.039 246.745 732.629 246.745C732.22 246.745 731.888 247.037 731.888 247.396C731.888 247.755 732.22 248.046 732.629 248.046Z" fill="#8643DC"/>
<path d="M790.259 206.266C790.668 206.266 791 205.975 791 205.616C791 205.257 790.668 204.966 790.259 204.966C789.849 204.966 789.518 205.257 789.518 205.616C789.518 205.975 789.849 206.266 790.259 206.266Z" fill="#8643DC"/>
<path d="M786.553 209.518C786.962 209.518 787.294 209.227 787.294 208.867C787.294 208.508 786.962 208.217 786.553 208.217C786.143 208.217 785.812 208.508 785.812 208.867C785.812 209.227 786.143 209.518 786.553 209.518Z" fill="#8643DC"/>
<path d="M782.661 212.769C783.071 212.769 783.403 212.478 783.403 212.119C783.403 211.76 783.071 211.468 782.661 211.468C782.252 211.468 781.92 211.76 781.92 212.119C781.92 212.478 782.252 212.769 782.661 212.769Z" fill="#8643DC"/>
<path d="M778.955 216.02C779.365 216.02 779.697 215.729 779.697 215.37C779.697 215.011 779.365 214.72 778.955 214.72C778.546 214.72 778.214 215.011 778.214 215.37C778.214 215.729 778.546 216.02 778.955 216.02Z" fill="#8643DC"/>
<path d="M775.064 219.272C775.473 219.272 775.805 218.981 775.805 218.621C775.805 218.262 775.473 217.971 775.064 217.971C774.655 217.971 774.323 218.262 774.323 218.621C774.323 218.981 774.655 219.272 775.064 219.272Z" fill="#8643DC"/>
<path d="M771.358 222.523C771.767 222.523 772.099 222.232 772.099 221.873C772.099 221.514 771.767 221.223 771.358 221.223C770.948 221.223 770.617 221.514 770.617 221.873C770.617 222.232 770.948 222.523 771.358 222.523Z" fill="#8643DC"/>
<path d="M767.467 225.774C767.876 225.774 768.208 225.483 768.208 225.124C768.208 224.765 767.876 224.474 767.467 224.474C767.057 224.474 766.725 224.765 766.725 225.124C766.725 225.483 767.057 225.774 767.467 225.774Z" fill="#8643DC"/>
<path d="M763.76 229.026C764.17 229.026 764.502 228.734 764.502 228.375C764.502 228.016 764.17 227.725 763.76 227.725C763.351 227.725 763.019 228.016 763.019 228.375C763.019 228.734 763.351 229.026 763.76 229.026Z" fill="#8643DC"/>
<path d="M759.869 232.277C760.278 232.277 760.61 231.986 760.61 231.627C760.61 231.268 760.278 230.976 759.869 230.976C759.46 230.976 759.128 231.268 759.128 231.627C759.128 231.986 759.46 232.277 759.869 232.277Z" fill="#8643DC"/>
<path d="M756.163 235.691C756.572 235.691 756.904 235.4 756.904 235.041C756.904 234.682 756.572 234.39 756.163 234.39C755.754 234.39 755.422 234.682 755.422 235.041C755.422 235.4 755.754 235.691 756.163 235.691Z" fill="#8643DC"/>
<path d="M752.271 238.942C752.681 238.942 753.013 238.651 753.013 238.292C753.013 237.933 752.681 237.642 752.271 237.642C751.862 237.642 751.53 237.933 751.53 238.292C751.53 238.651 751.862 238.942 752.271 238.942Z" fill="#8643DC"/>
<path d="M748.38 242.194C748.79 242.194 749.122 241.902 749.122 241.543C749.122 241.184 748.79 240.893 748.38 240.893C747.971 240.893 747.639 241.184 747.639 241.543C747.639 241.902 747.971 242.194 748.38 242.194Z" fill="#8643DC"/>
<path d="M744.674 245.445C745.084 245.445 745.415 245.154 745.415 244.795C745.415 244.436 745.084 244.144 744.674 244.144C744.265 244.144 743.933 244.436 743.933 244.795C743.933 245.154 744.265 245.445 744.674 245.445Z" fill="#8643DC"/>
<path d="M740.783 248.696C741.192 248.696 741.524 248.405 741.524 248.046C741.524 247.687 741.192 247.396 740.783 247.396C740.373 247.396 740.042 247.687 740.042 248.046C740.042 248.405 740.373 248.696 740.783 248.696Z" fill="#8643DC"/>
<path d="M737.077 251.948C737.486 251.948 737.818 251.656 737.818 251.297C737.818 250.938 737.486 250.647 737.077 250.647C736.667 250.647 736.335 250.938 736.335 251.297C736.335 251.656 736.667 251.948 737.077 251.948Z" fill="#8643DC"/>
<path d="M675 531.819L674.228 530.937L663 538.498L663.772 539.38L675 531.819Z" fill="#09E6DF"/>
<path d="M673.763 539.74L665.144 529.889L664.138 530.566L672.758 540.417L673.763 539.74Z" fill="#09E6DF"/>
<path d="M760 259.856L759.228 258.974L748 266.535L748.772 267.418L760 259.856Z" fill="#8643DC"/>
<path d="M758.763 267.777L750.144 257.926L749.138 258.603L757.758 268.454L758.763 267.777Z" fill="#8643DC"/>
<path d="M65.4158 140.733C67.3022 141.016 69.0931 139.904 69.4158 138.249C69.7384 136.594 68.4707 135.022 66.5843 134.739C64.6978 134.456 62.9069 135.568 62.5843 137.223C62.2616 138.878 63.5293 140.45 65.4158 140.733Z" fill="#8643DC"/>
<path d="M167.416 641.671C169.302 641.954 171.093 640.842 171.416 639.187C171.738 637.532 170.471 635.961 168.584 635.678C166.698 635.395 164.907 636.507 164.584 638.162C164.262 639.817 165.529 641.388 167.416 641.671Z" fill="#8643DC"/>
<path d="M590.416 218.812C592.302 219.095 594.093 217.983 594.416 216.328C594.738 214.673 593.471 213.102 591.584 212.819C589.698 212.536 587.907 213.648 587.584 215.303C587.262 216.958 588.529 218.529 590.416 218.812Z" fill="#43DC77"/>
<path d="M459.416 6.50584C461.302 6.78892 463.093 5.67676 463.416 4.02176C463.738 2.36676 462.471 0.795644 460.584 0.512563C458.698 0.229482 456.907 1.34164 456.584 2.99664C456.262 4.65163 457.529 6.22276 459.416 6.50584Z" fill="#FFA800" fill-opacity="0.7"/>
</svg>
