<svg width="708" height="684" viewBox="0 0 708 684" fill="none" xmlns="http://www.w3.org/2000/svg">
<g filter="url(#filter0_f_77_9)">
<mask id="path-1-outside-1_77_9" maskUnits="userSpaceOnUse" x="310" y="221" width="182" height="182" fill="black">
<rect fill="white" x="310" y="221" width="182" height="182"/>
<path d="M491 312C491 329.8 485.722 347.201 475.832 362.001C465.943 376.802 451.887 388.337 435.442 395.149C418.996 401.961 400.9 403.743 383.442 400.271C365.984 396.798 349.947 388.226 337.36 375.64C324.774 363.053 316.202 347.016 312.729 329.558C309.257 312.1 311.039 294.004 317.851 277.559C324.663 261.113 336.198 247.057 350.999 237.168C365.799 227.278 383.2 222 401 222L401 312H491Z"/>
</mask>
<path d="M491 312C491 329.8 485.722 347.201 475.832 362.001C465.943 376.802 451.887 388.337 435.442 395.149C418.996 401.961 400.9 403.743 383.442 400.271C365.984 396.798 349.947 388.226 337.36 375.64C324.774 363.053 316.202 347.016 312.729 329.558C309.257 312.1 311.039 294.004 317.851 277.559C324.663 261.113 336.198 247.057 350.999 237.168C365.799 227.278 383.2 222 401 222L401 312H491Z" fill="#2965F1" fill-opacity="0.75"/>
<path d="M491 312C491 329.8 485.722 347.201 475.832 362.001C465.943 376.802 451.887 388.337 435.442 395.149C418.996 401.961 400.9 403.743 383.442 400.271C365.984 396.798 349.947 388.226 337.36 375.64C324.774 363.053 316.202 347.016 312.729 329.558C309.257 312.1 311.039 294.004 317.851 277.559C324.663 261.113 336.198 247.057 350.999 237.168C365.799 227.278 383.2 222 401 222L401 312H491Z" stroke="black" stroke-width="2" mask="url(#path-1-outside-1_77_9)"/>
</g>
<g filter="url(#filter1_d_77_9)">
<path d="M392.237 433.1V434.936L384.596 452H381.734L389.213 435.449H380.573V438.824H377.981V433.1H392.237ZM399.529 440.633C402.229 440.633 404.209 441.146 405.469 442.172C406.747 443.18 407.386 444.566 407.386 446.33C407.386 447.446 407.116 448.454 406.576 449.354C406.054 450.236 405.253 450.938 404.173 451.46C403.111 451.964 401.797 452.216 400.231 452.216C398.899 452.216 397.612 452.018 396.37 451.622C395.128 451.208 394.102 450.641 393.292 449.921L394.534 447.788C395.182 448.4 396.01 448.895 397.018 449.273C398.026 449.633 399.088 449.813 400.204 449.813C401.626 449.813 402.724 449.516 403.498 448.922C404.29 448.31 404.686 447.482 404.686 446.438C404.686 445.304 404.254 444.449 403.39 443.873C402.526 443.279 401.05 442.982 398.962 442.982H394.669L395.668 433.1H406.333V435.449H397.936L397.423 440.633H399.529ZM413.474 443.252C412.16 443.252 411.098 442.775 410.288 441.821C409.478 440.867 409.073 439.625 409.073 438.095C409.073 436.565 409.478 435.323 410.288 434.369C411.098 433.415 412.16 432.938 413.474 432.938C414.788 432.938 415.841 433.415 416.633 434.369C417.443 435.305 417.848 436.547 417.848 438.095C417.848 439.643 417.443 440.894 416.633 441.848C415.841 442.784 414.788 443.252 413.474 443.252ZM424.868 433.1H426.947L414.041 452H411.962L424.868 433.1ZM413.474 441.713C414.302 441.713 414.95 441.398 415.418 440.768C415.886 440.12 416.12 439.229 416.12 438.095C416.12 436.961 415.886 436.079 415.418 435.449C414.95 434.801 414.302 434.477 413.474 434.477C412.664 434.477 412.016 434.801 411.53 435.449C411.062 436.097 410.828 436.979 410.828 438.095C410.828 439.211 411.062 440.093 411.53 440.741C412.016 441.389 412.664 441.713 413.474 441.713ZM425.435 452.162C424.121 452.162 423.059 451.694 422.249 450.758C421.457 449.804 421.061 448.553 421.061 447.005C421.061 445.457 421.457 444.215 422.249 443.279C423.059 442.325 424.121 441.848 425.435 441.848C426.749 441.848 427.811 442.325 428.621 443.279C429.431 444.233 429.836 445.475 429.836 447.005C429.836 448.535 429.431 449.777 428.621 450.731C427.811 451.685 426.749 452.162 425.435 452.162ZM425.435 450.623C426.245 450.623 426.884 450.299 427.352 449.651C427.838 449.003 428.081 448.121 428.081 447.005C428.081 445.889 427.838 445.007 427.352 444.359C426.884 443.711 426.245 443.387 425.435 443.387C424.607 443.387 423.959 443.711 423.491 444.359C423.023 444.989 422.789 445.871 422.789 447.005C422.789 448.139 423.023 449.03 423.491 449.678C423.959 450.308 424.607 450.623 425.435 450.623Z" fill="black"/>
</g>
<g clip-path="url(#clip0_77_9)">
<path d="M278.342 309.578L274.211 355.852L255.643 361L237.126 355.86L233 309.578H278.342Z" fill="#264DE4"/>
<path d="M270.675 352.906L274.205 313.362H255.671V357.065L270.675 352.906Z" fill="#2965F1"/>
<path d="M242.46 330.527L242.968 336.203H255.671V330.527H242.46Z" fill="#EBEBEB"/>
<path d="M255.671 319.038H255.651H241.437L241.953 324.714H255.671V319.038Z" fill="#EBEBEB"/>
<path d="M255.671 351.175V345.269L255.646 345.276L249.324 343.569L248.92 339.042H245.848H243.222L244.017 347.954L255.645 351.182L255.671 351.175Z" fill="#EBEBEB"/>
<path d="M243.671 297H250.546V299.875H246.546V302.75H250.546V305.625H243.671V297Z" fill="black"/>
<path d="M251.921 297H258.796V299.5H254.796V300H258.796V305.75H251.921V303.125H255.921V302.625H251.921V297Z" fill="black"/>
<path d="M260.171 297H267.046V299.5H263.046V300H267.046V305.75H260.171V303.125H264.171V302.625H260.171V297Z" fill="black"/>
<path d="M262.641 336.203L261.982 343.565L255.651 345.274V351.179L267.288 347.954L267.373 346.995L268.707 332.051L268.846 330.527L269.871 319.038H255.651V324.714H263.65L263.133 330.527H255.651V336.203H262.641Z" fill="white"/>
</g>
<g filter="url(#filter2_f_77_9)">
<path d="M287.017 433.432C263.939 413.606 250.783 386.55 250.443 358.215C250.103 329.88 262.608 302.587 285.205 282.34C307.803 262.094 338.644 250.552 370.942 250.254C403.24 249.955 434.35 260.926 457.428 280.751L372.223 357.091L287.017 433.432Z" fill="#087CFA"/>
</g>
<defs>
<filter id="filter0_f_77_9" x="306" y="217" width="190" height="190" filterUnits="userSpaceOnUse" color-interpolation-filters="sRGB">
<feFlood flood-opacity="0" result="BackgroundImageFix"/>
<feBlend mode="normal" in="SourceGraphic" in2="BackgroundImageFix" result="shape"/>
<feGaussianBlur stdDeviation="2" result="effect1_foregroundBlur_77_9"/>
</filter>
<filter id="filter1_d_77_9" x="373.981" y="432.938" width="59.8543" height="27.278" filterUnits="userSpaceOnUse" color-interpolation-filters="sRGB">
<feFlood flood-opacity="0" result="BackgroundImageFix"/>
<feColorMatrix in="SourceAlpha" type="matrix" values="0 0 0 0 0 0 0 0 0 0 0 0 0 0 0 0 0 0 127 0" result="hardAlpha"/>
<feOffset dy="4"/>
<feGaussianBlur stdDeviation="2"/>
<feComposite in2="hardAlpha" operator="out"/>
<feColorMatrix type="matrix" values="0 0 0 0 0 0 0 0 0 0 0 0 0 0 0 0 0 0 0.25 0"/>
<feBlend mode="normal" in2="BackgroundImageFix" result="effect1_dropShadow_77_9"/>
<feBlend mode="normal" in="SourceGraphic" in2="effect1_dropShadow_77_9" result="shape"/>
</filter>
<filter id="filter2_f_77_9" x="0.436218" y="0.247681" width="706.992" height="683.184" filterUnits="userSpaceOnUse" color-interpolation-filters="sRGB">
<feFlood flood-opacity="0" result="BackgroundImageFix"/>
<feBlend mode="normal" in="SourceGraphic" in2="BackgroundImageFix" result="shape"/>
<feGaussianBlur stdDeviation="125" result="effect1_foregroundBlur_77_9"/>
</filter>
<clipPath id="clip0_77_9">
<rect width="45.3418" height="64" fill="white" transform="translate(233 297)"/>
</clipPath>
</defs>
</svg>
