<svg width="731" height="704" viewBox="0 0 731 704" fill="none" xmlns="http://www.w3.org/2000/svg">
<path d="M198.55 310H201.425V312.85H204.075V310H206.95V318.625H204.075V315.75H201.45V318.625H198.55V310ZM210.75 312.875H208.213V310H216.175V312.875H213.625V318.625H210.75V312.875ZM217.438 310H220.45L222.3 313.037L224.15 310H227.163V318.625H224.288V314.35L222.275 317.45L220.263 314.35V318.625H217.438V310ZM228.588 310H231.463V315.775H235.538V318.625H228.588" fill="black"/>
<path d="M198.45 368.875L194.325 322.575H239.675L235.55 368.85L216.962 374" fill="#E44D26"/>
<path d="M217 370.062V326.375H235.537L232 365.875" fill="#F16529"/>
<path d="M202.75 332.037H217V337.712H208.975L209.5 343.525H217V349.187H204.3L202.75 332.037ZM204.55 352.037H210.25L210.65 356.575L217 358.275V364.2L205.35 360.95" fill="#EBEBEB"/>
<path d="M231.2 332.037H216.975V337.712H230.675L231.2 332.037ZM230.162 343.525H216.975V349.2H223.975L223.312 356.575L216.975 358.275V364.175L228.6 360.95" fill="white"/>
<g filter="url(#filter0_d_77_8)">
<path d="M343.237 450.1V451.936L335.596 469H332.734L340.213 452.449H331.573V455.824H328.981V450.1H343.237ZM350.529 457.633C353.229 457.633 355.209 458.146 356.469 459.172C357.747 460.18 358.386 461.566 358.386 463.33C358.386 464.446 358.116 465.454 357.576 466.354C357.054 467.236 356.253 467.938 355.173 468.46C354.111 468.964 352.797 469.216 351.231 469.216C349.899 469.216 348.612 469.018 347.37 468.622C346.128 468.208 345.102 467.641 344.292 466.921L345.534 464.788C346.182 465.4 347.01 465.895 348.018 466.273C349.026 466.633 350.088 466.813 351.204 466.813C352.626 466.813 353.724 466.516 354.498 465.922C355.29 465.31 355.686 464.482 355.686 463.438C355.686 462.304 355.254 461.449 354.39 460.873C353.526 460.279 352.05 459.982 349.962 459.982H345.669L346.668 450.1H357.333V452.449H348.936L348.423 457.633H350.529ZM364.474 460.252C363.16 460.252 362.098 459.775 361.288 458.821C360.478 457.867 360.073 456.625 360.073 455.095C360.073 453.565 360.478 452.323 361.288 451.369C362.098 450.415 363.16 449.938 364.474 449.938C365.788 449.938 366.841 450.415 367.633 451.369C368.443 452.305 368.848 453.547 368.848 455.095C368.848 456.643 368.443 457.894 367.633 458.848C366.841 459.784 365.788 460.252 364.474 460.252ZM375.868 450.1H377.947L365.041 469H362.962L375.868 450.1ZM364.474 458.713C365.302 458.713 365.95 458.398 366.418 457.768C366.886 457.12 367.12 456.229 367.12 455.095C367.12 453.961 366.886 453.079 366.418 452.449C365.95 451.801 365.302 451.477 364.474 451.477C363.664 451.477 363.016 451.801 362.53 452.449C362.062 453.097 361.828 453.979 361.828 455.095C361.828 456.211 362.062 457.093 362.53 457.741C363.016 458.389 363.664 458.713 364.474 458.713ZM376.435 469.162C375.121 469.162 374.059 468.694 373.249 467.758C372.457 466.804 372.061 465.553 372.061 464.005C372.061 462.457 372.457 461.215 373.249 460.279C374.059 459.325 375.121 458.848 376.435 458.848C377.749 458.848 378.811 459.325 379.621 460.279C380.431 461.233 380.836 462.475 380.836 464.005C380.836 465.535 380.431 466.777 379.621 467.731C378.811 468.685 377.749 469.162 376.435 469.162ZM376.435 467.623C377.245 467.623 377.884 467.299 378.352 466.651C378.838 466.003 379.081 465.121 379.081 464.005C379.081 462.889 378.838 462.007 378.352 461.359C377.884 460.711 377.245 460.387 376.435 460.387C375.607 460.387 374.959 460.711 374.491 461.359C374.023 461.989 373.789 462.871 373.789 464.005C373.789 465.139 374.023 466.03 374.491 466.678C374.959 467.308 375.607 467.623 376.435 467.623Z" fill="black"/>
</g>
<g filter="url(#filter1_f_77_8)">
<path d="M290.742 453.847C265.084 431.807 250.458 401.727 250.08 370.226C249.702 338.724 263.604 308.381 288.727 285.872C313.851 263.362 348.137 250.53 384.045 250.199C419.952 249.868 454.539 262.064 480.196 284.104L385.469 368.976L290.742 453.847Z" fill="#FFA800"/>
</g>
<g filter="url(#filter2_f_77_8)">
<mask id="path-8-outside-1_77_8" maskUnits="userSpaceOnUse" x="264" y="238" width="182" height="182" fill="black">
<rect fill="white" x="264" y="238" width="182" height="182"/>
<path d="M445 329C445 346.8 439.722 364.201 429.832 379.001C419.943 393.802 405.887 405.337 389.442 412.149C372.996 418.961 354.9 420.743 337.442 417.271C319.984 413.798 303.947 405.226 291.36 392.64C278.774 380.053 270.202 364.016 266.729 346.558C263.257 329.1 265.039 311.004 271.851 294.559C278.663 278.113 290.198 264.057 304.999 254.168C319.799 244.278 337.2 239 355 239L355 329H445Z"/>
</mask>
<path d="M445 329C445 346.8 439.722 364.201 429.832 379.001C419.943 393.802 405.887 405.337 389.442 412.149C372.996 418.961 354.9 420.743 337.442 417.271C319.984 413.798 303.947 405.226 291.36 392.64C278.774 380.053 270.202 364.016 266.729 346.558C263.257 329.1 265.039 311.004 271.851 294.559C278.663 278.113 290.198 264.057 304.999 254.168C319.799 244.278 337.2 239 355 239L355 329H445Z" fill="#FF6B00" fill-opacity="0.75"/>
<path d="M445 329C445 346.8 439.722 364.201 429.832 379.001C419.943 393.802 405.887 405.337 389.442 412.149C372.996 418.961 354.9 420.743 337.442 417.271C319.984 413.798 303.947 405.226 291.36 392.64C278.774 380.053 270.202 364.016 266.729 346.558C263.257 329.1 265.039 311.004 271.851 294.559C278.663 278.113 290.198 264.057 304.999 254.168C319.799 244.278 337.2 239 355 239L355 329H445Z" stroke="black" stroke-width="2" mask="url(#path-8-outside-1_77_8)"/>
</g>
<defs>
<filter id="filter0_d_77_8" x="324.981" y="449.938" width="59.8543" height="27.278" filterUnits="userSpaceOnUse" color-interpolation-filters="sRGB">
<feFlood flood-opacity="0" result="BackgroundImageFix"/>
<feColorMatrix in="SourceAlpha" type="matrix" values="0 0 0 0 0 0 0 0 0 0 0 0 0 0 0 0 0 0 127 0" result="hardAlpha"/>
<feOffset dy="4"/>
<feGaussianBlur stdDeviation="2"/>
<feComposite in2="hardAlpha" operator="out"/>
<feColorMatrix type="matrix" values="0 0 0 0 0 0 0 0 0 0 0 0 0 0 0 0 0 0 0.25 0"/>
<feBlend mode="normal" in2="BackgroundImageFix" result="effect1_dropShadow_77_8"/>
<feBlend mode="normal" in="SourceGraphic" in2="effect1_dropShadow_77_8" result="shape"/>
</filter>
<filter id="filter1_f_77_8" x="0.0725098" y="0.192383" width="730.124" height="703.655" filterUnits="userSpaceOnUse" color-interpolation-filters="sRGB">
<feFlood flood-opacity="0" result="BackgroundImageFix"/>
<feBlend mode="normal" in="SourceGraphic" in2="BackgroundImageFix" result="shape"/>
<feGaussianBlur stdDeviation="125" result="effect1_foregroundBlur_77_8"/>
</filter>
<filter id="filter2_f_77_8" x="260" y="234" width="190" height="190" filterUnits="userSpaceOnUse" color-interpolation-filters="sRGB">
<feFlood flood-opacity="0" result="BackgroundImageFix"/>
<feBlend mode="normal" in="SourceGraphic" in2="BackgroundImageFix" result="shape"/>
<feGaussianBlur stdDeviation="2" result="effect1_foregroundBlur_77_8"/>
</filter>
</defs>
</svg>
