<svg width="72" height="72" viewBox="0 0 72 72" fill="none" xmlns="http://www.w3.org/2000/svg">
<path d="M6 34.5C6 17.931 19.431 4.5 36 4.5C52.569 4.5 66 17.931 66 34.5L36 37.5L6 34.5Z" fill="#00C853"/>
<path d="M66 34.5C66 51.069 52.569 64.5 36 64.5C19.431 64.5 6 51.069 6 34.5H66Z" fill="#00E676"/>
<path d="M58.935 63.51V68.25C58.935 68.535 58.785 68.775 58.56 68.895C58.35 69.03 58.065 69.045 57.81 68.895L53.73 66.51L46.71 54.285L43.71 49.08L38.085 39.3L42.48 34.905L48.465 45.315L51.57 50.715L58.935 63.51Z" fill="#C2EAFD"/>
<path d="M46.8465 42.5025C45.6255 44.154 44.043 45.519 42.2085 46.4745L48.195 56.886C49.9725 55.914 51.603 54.717 53.0925 53.367L46.8465 42.5025Z" fill="#9ADDFB"/>
<path d="M58.5 34.5C58.5 40.86 55.845 46.62 51.57 50.715C50.13 52.11 48.495 53.31 46.71 54.285C43.53 56.01 39.885 57 36 57C32.205 57 28.56 56.07 25.29 54.285L18.27 66.51L14.19 68.895C13.935 69.045 13.65 69.03 13.44 68.895C13.215 68.775 13.065 68.535 13.065 68.25V63.51L29.52 34.905L33.915 39.3L28.29 49.095C30.645 50.34 33.27 51 36 51C38.79 51 41.415 50.31 43.71 49.08C45.525 48.135 47.13 46.845 48.465 45.315C50.985 42.405 52.5 38.64 52.5 34.5H58.5Z" fill="#C2EAFD"/>
<path d="M42.75 19.5H39V15H33V19.5H29.25C28.008 19.5 27 20.508 27 21.75V34.5L34.398 41.898C35.283 42.783 36.717 42.783 37.6005 41.898L45 34.5V21.75C45 20.508 43.992 19.5 42.75 19.5ZM36 33C33.9285 33 32.25 31.3215 32.25 29.25C32.25 27.1785 33.9285 25.5 36 25.5C38.0715 25.5 39.75 27.1785 39.75 29.25C39.75 31.3215 38.0715 33 36 33Z" fill="#37474F"/>
</svg>
