<svg width="700" height="723" viewBox="0 0 700 723" fill="none" xmlns="http://www.w3.org/2000/svg">
<g filter="url(#filter0_f_77_10)">
<path d="M294.575 472.934C266.575 448.881 250.613 416.055 250.2 381.677C249.788 347.299 264.959 314.185 292.376 289.621C319.794 265.056 357.211 251.053 396.397 250.691C435.583 250.329 473.328 263.639 501.328 287.692L397.951 380.313L294.575 472.934Z" fill="#FFDA3E"/>
</g>
<g clip-path="url(#clip0_77_10)">
<path opacity="0.85" d="M250.367 328.025C251.077 328.015 251.792 328.005 252.506 328C252.517 328.395 252.532 329.181 252.542 329.576C251.812 329.576 251.082 329.571 250.357 329.571C250.357 329.186 250.367 328.416 250.367 328.025Z" fill="#101010"/>
<path d="M207.064 328.35C208.367 328.36 209.675 328.365 210.988 328.37C210.876 330.702 211.332 333.125 210.673 335.395C209.822 337.028 207.703 336.708 206.177 336.739C206.117 336.222 206.056 335.705 206 335.188C206.877 335.117 207.83 335.289 208.636 334.838C209.158 333.221 208.925 331.492 208.793 329.83C208.347 329.84 207.46 329.85 207.014 329.855C207.029 329.48 207.049 328.725 207.064 328.35Z" fill="#131313"/>
<path d="M233.164 328.988C234.7 327.802 236.717 328.289 238.425 328.75C238.42 329.201 238.415 330.104 238.415 330.555C237.092 330.023 234.578 328.862 234.243 331.051C235.495 331.432 236.818 331.655 237.954 332.334C239.16 333.317 238.821 335.553 237.432 336.227C235.85 337.164 233.975 336.653 232.307 336.313C232.211 335.618 232.115 334.929 232.028 334.235C233.432 334.853 236.276 336.318 236.697 333.951C235.288 333.419 233.534 333.343 232.51 332.126C232.059 331.092 232.135 329.652 233.164 328.988Z" fill="#131313"/>
<path d="M261.189 328.639C261.782 328.639 262.381 328.639 262.984 328.639C262.999 329.211 263.019 329.784 263.045 330.357C263.501 330.362 264.418 330.372 264.879 330.377C264.89 330.727 264.905 331.421 264.915 331.766C264.449 331.761 263.516 331.751 263.05 331.741C263.075 332.902 262.776 334.169 263.359 335.238C263.795 335.284 264.667 335.37 265.102 335.416C265.057 337.55 262.624 336.582 261.336 336.247C261.22 334.944 261.164 333.642 261.164 332.334C260.835 331.873 260.505 331.406 260.181 330.945C260.429 330.717 260.926 330.261 261.174 330.033C261.179 329.683 261.184 328.983 261.189 328.639Z" fill="#131313"/>
<path d="M212.569 330.423C214.222 330.337 216.533 329.723 217.572 331.432C217.942 333.125 217.709 334.883 217.765 336.607C217.025 336.541 216.285 336.47 215.55 336.404C214.708 336.475 213.72 337.098 212.944 336.541C211.657 335.923 211.637 333.642 212.99 333.089C213.973 332.684 215.048 332.613 216.077 332.369C215.099 331.356 213.71 331.741 212.478 331.873C212.503 331.508 212.549 330.783 212.569 330.423ZM214.181 333.905C214.125 334.397 214.075 334.888 214.029 335.385C214.592 335.355 215.154 335.329 215.722 335.299C215.763 334.767 215.808 334.235 215.854 333.702C215.291 333.768 214.734 333.839 214.181 333.905Z" fill="#131313"/>
<path d="M218.52 330.245C219.007 330.342 219.985 330.534 220.472 330.631C220.983 331.807 221.333 333.043 221.83 334.23C222.246 332.962 222.631 331.68 223.006 330.398C223.493 330.387 224.471 330.372 224.957 330.362C224.268 332.537 223.498 334.686 222.636 336.805C221.967 336.718 221.308 336.576 220.669 336.389C219.747 334.422 219.138 332.324 218.52 330.245Z" fill="#131313"/>
<path d="M225.586 331.862C225.728 331.381 225.89 330.899 226.067 330.428C227.639 330.2 229.768 329.865 230.847 331.335C231.217 333.089 230.989 334.904 231.025 336.683C230.28 336.581 229.54 336.48 228.8 336.379C227.472 337.083 225.256 336.83 225.287 334.959C225.033 332.739 227.806 332.709 229.312 332.415C228.404 331.198 226.833 331.842 225.586 331.862ZM227.421 333.951C227.365 334.407 227.314 334.868 227.264 335.324C227.821 335.34 228.379 335.355 228.942 335.365C228.992 334.802 229.043 334.245 229.094 333.682C228.536 333.768 227.978 333.86 227.421 333.951Z" fill="#131313"/>
<path d="M239.145 333.52C238.988 330.762 242.496 329.318 244.594 330.788C244.645 331.178 244.741 331.964 244.787 332.354C243.824 332.05 242.835 331.361 241.801 331.827C240.706 332.871 240.934 335.522 242.79 335.365C243.302 335.203 244.32 334.878 244.832 334.716C244.741 335.152 244.564 336.024 244.477 336.455C242.283 337.489 238.973 336.267 239.145 333.52Z" fill="#131313"/>
<path d="M245.628 330.225C246.388 330.428 247.164 330.631 247.929 330.849C248.502 330.641 249.08 330.438 249.663 330.23C249.688 330.717 249.749 331.69 249.779 332.177C249.05 332.212 248.32 332.248 247.6 332.283C247.549 333.738 247.534 335.188 247.524 336.642C247.047 336.647 246.089 336.652 245.613 336.658C245.587 334.513 245.582 332.369 245.628 330.225Z" fill="#131313"/>
<path d="M253.87 330.362C255.269 330.676 256.678 330.58 258.072 330.301C260.257 330.752 260.307 333.849 259.476 335.471C258.787 336.87 257.099 336.739 255.796 336.668C255.806 337.408 255.816 338.143 255.827 338.883C255.34 338.878 254.357 338.868 253.865 338.857C253.865 336.029 253.86 333.196 253.87 330.362ZM255.847 331.852C255.827 333.033 255.816 334.219 255.827 335.401C256.455 335.228 257.266 335.35 257.743 334.807C258.097 333.844 257.819 332.805 257.748 331.812C257.114 331.822 256.48 331.837 255.847 331.852Z" fill="#131313"/>
<path d="M250.55 330.377C251.001 330.377 251.903 330.377 252.349 330.377C252.38 332.471 252.38 334.559 252.349 336.653C251.898 336.653 251.001 336.653 250.55 336.653C250.514 334.564 250.514 332.471 250.55 330.377Z" fill="#131313"/>
<path d="M212.939 340.723C217.993 340.51 223.057 340.784 228.115 340.697C233.696 340.52 239.272 340.667 244.858 340.687C249.288 340.697 253.718 340.667 258.148 340.702C256.754 356.076 255.35 371.45 254.057 386.834C248.122 388.522 242.181 390.184 236.246 391.862C235.485 392.176 234.705 391.882 233.975 391.685C228.333 390.063 222.692 388.456 217.04 386.895C215.57 371.516 214.186 356.122 212.939 340.723ZM235.637 344.732C235.43 352.315 235.607 359.898 235.546 367.481C235.602 374.415 235.445 381.354 235.627 388.289C240.615 387.113 245.537 385.668 250.459 384.244C251.695 371.08 252.902 357.916 253.936 344.737C247.838 344.676 241.735 344.747 235.637 344.732ZM229.291 374.344C226.361 373.543 223.467 372.621 220.497 371.987C220.411 373.751 220.441 375.515 220.644 377.269C224.993 378.328 229.251 379.722 233.605 380.761C233.635 370.72 233.59 360.674 233.625 350.632C232.206 350.597 230.787 350.577 229.367 350.546C229.205 358.474 229.357 366.412 229.291 374.344Z" fill="#D6BA32"/>
<path d="M235.637 344.732C241.735 344.747 247.838 344.676 253.936 344.737C252.902 357.916 251.695 371.08 250.459 384.244C245.537 385.668 240.615 387.113 235.627 388.289C235.445 381.354 235.602 374.415 235.546 367.481C235.607 359.898 235.43 352.315 235.637 344.732ZM237.346 350.627C237.366 357.156 237.371 363.69 237.346 370.218C240.326 369.737 243.296 369.184 246.267 368.642C246.221 370.162 246.16 371.683 246.094 373.204C243.2 373.974 240.311 374.77 237.401 375.485C237.356 377.238 237.351 378.992 237.366 380.751C241.031 379.93 244.64 378.896 248.279 377.979C248.735 377.766 249.612 377.791 249.572 377.076C250.013 372.383 250.286 367.669 250.712 362.965C247.696 363.213 244.711 363.72 241.695 363.928C241.669 361.262 241.664 358.595 241.705 355.929C244.878 355.929 248.046 355.929 251.219 355.934C251.422 354.155 251.599 352.371 251.736 350.587C246.941 350.607 242.141 350.541 237.346 350.627Z" fill="#FFDA3E"/>
<path d="M229.291 374.344C229.357 366.412 229.205 358.474 229.367 350.546C230.787 350.577 232.206 350.597 233.625 350.632C233.59 360.674 233.635 370.72 233.605 380.761C229.251 379.722 224.993 378.328 220.644 377.269C220.441 375.515 220.411 373.751 220.497 371.987C223.467 372.621 226.361 373.543 229.291 374.344Z" fill="#EBEBEB"/>
</g>
<g filter="url(#filter1_f_77_10)">
<mask id="path-16-outside-1_77_10" maskUnits="userSpaceOnUse" x="328" y="252" width="182" height="182" fill="black">
<rect fill="white" x="328" y="252" width="182" height="182"/>
<path d="M509 343C509 360.8 503.722 378.201 493.832 393.001C483.943 407.802 469.887 419.337 453.442 426.149C436.996 432.961 418.9 434.743 401.442 431.271C383.984 427.798 367.947 419.226 355.36 406.64C342.774 394.053 334.202 378.016 330.729 360.558C327.257 343.1 329.039 325.004 335.851 308.559C342.663 292.113 354.198 278.057 368.999 268.168C383.799 258.278 401.2 253 419 253L419 343H509Z"/>
</mask>
<path d="M509 343C509 360.8 503.722 378.201 493.832 393.001C483.943 407.802 469.887 419.337 453.442 426.149C436.996 432.961 418.9 434.743 401.442 431.271C383.984 427.798 367.947 419.226 355.36 406.64C342.774 394.053 334.202 378.016 330.729 360.558C327.257 343.1 329.039 325.004 335.851 308.559C342.663 292.113 354.198 278.057 368.999 268.168C383.799 258.278 401.2 253 419 253L419 343H509Z" fill="#FFDA3E" fill-opacity="0.75"/>
<path d="M509 343C509 360.8 503.722 378.201 493.832 393.001C483.943 407.802 469.887 419.337 453.442 426.149C436.996 432.961 418.9 434.743 401.442 431.271C383.984 427.798 367.947 419.226 355.36 406.64C342.774 394.053 334.202 378.016 330.729 360.558C327.257 343.1 329.039 325.004 335.851 308.559C342.663 292.113 354.198 278.057 368.999 268.168C383.799 258.278 401.2 253 419 253L419 343H509Z" stroke="black" stroke-width="2" mask="url(#path-16-outside-1_77_10)"/>
</g>
<g filter="url(#filter2_d_77_10)">
<path d="M413.237 464.1V465.936L405.596 483H402.734L410.213 466.449H401.573V469.824H398.981V464.1H413.237ZM420.529 471.633C423.229 471.633 425.209 472.146 426.469 473.172C427.747 474.18 428.386 475.566 428.386 477.33C428.386 478.446 428.116 479.454 427.576 480.354C427.054 481.236 426.253 481.938 425.173 482.46C424.111 482.964 422.797 483.216 421.231 483.216C419.899 483.216 418.612 483.018 417.37 482.622C416.128 482.208 415.102 481.641 414.292 480.921L415.534 478.788C416.182 479.4 417.01 479.895 418.018 480.273C419.026 480.633 420.088 480.813 421.204 480.813C422.626 480.813 423.724 480.516 424.498 479.922C425.29 479.31 425.686 478.482 425.686 477.438C425.686 476.304 425.254 475.449 424.39 474.873C423.526 474.279 422.05 473.982 419.962 473.982H415.669L416.668 464.1H427.333V466.449H418.936L418.423 471.633H420.529ZM434.474 474.252C433.16 474.252 432.098 473.775 431.288 472.821C430.478 471.867 430.073 470.625 430.073 469.095C430.073 467.565 430.478 466.323 431.288 465.369C432.098 464.415 433.16 463.938 434.474 463.938C435.788 463.938 436.841 464.415 437.633 465.369C438.443 466.305 438.848 467.547 438.848 469.095C438.848 470.643 438.443 471.894 437.633 472.848C436.841 473.784 435.788 474.252 434.474 474.252ZM445.868 464.1H447.947L435.041 483H432.962L445.868 464.1ZM434.474 472.713C435.302 472.713 435.95 472.398 436.418 471.768C436.886 471.12 437.12 470.229 437.12 469.095C437.12 467.961 436.886 467.079 436.418 466.449C435.95 465.801 435.302 465.477 434.474 465.477C433.664 465.477 433.016 465.801 432.53 466.449C432.062 467.097 431.828 467.979 431.828 469.095C431.828 470.211 432.062 471.093 432.53 471.741C433.016 472.389 433.664 472.713 434.474 472.713ZM446.435 483.162C445.121 483.162 444.059 482.694 443.249 481.758C442.457 480.804 442.061 479.553 442.061 478.005C442.061 476.457 442.457 475.215 443.249 474.279C444.059 473.325 445.121 472.848 446.435 472.848C447.749 472.848 448.811 473.325 449.621 474.279C450.431 475.233 450.836 476.475 450.836 478.005C450.836 479.535 450.431 480.777 449.621 481.731C448.811 482.685 447.749 483.162 446.435 483.162ZM446.435 481.623C447.245 481.623 447.884 481.299 448.352 480.651C448.838 480.003 449.081 479.121 449.081 478.005C449.081 476.889 448.838 476.007 448.352 475.359C447.884 474.711 447.245 474.387 446.435 474.387C445.607 474.387 444.959 474.711 444.491 475.359C444.023 475.989 443.789 476.871 443.789 478.005C443.789 479.139 444.023 480.03 444.491 480.678C444.959 481.308 445.607 481.623 446.435 481.623Z" fill="black"/>
</g>
<defs>
<filter id="filter0_f_77_10" x="0.192261" y="0.68396" width="751.136" height="722.25" filterUnits="userSpaceOnUse" color-interpolation-filters="sRGB">
<feFlood flood-opacity="0" result="BackgroundImageFix"/>
<feBlend mode="normal" in="SourceGraphic" in2="BackgroundImageFix" result="shape"/>
<feGaussianBlur stdDeviation="125" result="effect1_foregroundBlur_77_10"/>
</filter>
<filter id="filter1_f_77_10" x="324" y="248" width="190" height="190" filterUnits="userSpaceOnUse" color-interpolation-filters="sRGB">
<feFlood flood-opacity="0" result="BackgroundImageFix"/>
<feBlend mode="normal" in="SourceGraphic" in2="BackgroundImageFix" result="shape"/>
<feGaussianBlur stdDeviation="2" result="effect1_foregroundBlur_77_10"/>
</filter>
<filter id="filter2_d_77_10" x="394.981" y="463.938" width="59.8544" height="27.278" filterUnits="userSpaceOnUse" color-interpolation-filters="sRGB">
<feFlood flood-opacity="0" result="BackgroundImageFix"/>
<feColorMatrix in="SourceAlpha" type="matrix" values="0 0 0 0 0 0 0 0 0 0 0 0 0 0 0 0 0 0 127 0" result="hardAlpha"/>
<feOffset dy="4"/>
<feGaussianBlur stdDeviation="2"/>
<feComposite in2="hardAlpha" operator="out"/>
<feColorMatrix type="matrix" values="0 0 0 0 0 0 0 0 0 0 0 0 0 0 0 0 0 0 0.25 0"/>
<feBlend mode="normal" in2="BackgroundImageFix" result="effect1_dropShadow_77_10"/>
<feBlend mode="normal" in="SourceGraphic" in2="effect1_dropShadow_77_10" result="shape"/>
</filter>
<clipPath id="clip0_77_10">
<rect width="59.1024" height="64" fill="white" transform="translate(206 328)"/>
</clipPath>
</defs>
</svg>
