<svg width="40" height="36" viewBox="0 0 40 36" fill="none" xmlns="http://www.w3.org/2000/svg">
<path d="M0 18.2699C0 8.57949 7.85561 0.723877 17.546 0.723877H40V15.8159C40 26.8616 31.0457 35.8159 20 35.8159H17.546C7.85561 35.8159 0 27.9603 0 18.2699Z" fill="#0003FF"/>
<path d="M16 10.7239C16 5.20103 20.4772 0.723877 26 0.723877H40V10.9018C40 16.4246 35.5228 20.9018 30 20.9018H16V10.7239Z" fill="#FFA800"/>
<path d="M25.32 26.1012H15.57L13.71 30.6012H8.73L18.09 9.60119H22.89L32.28 30.6012H27.18L25.32 26.1012ZM23.79 22.4112L20.46 14.3712L17.13 22.4112H23.79Z" fill="white"/>
</svg>
