<svg width="42" height="42" viewBox="0 0 42 42" fill="none" xmlns="http://www.w3.org/2000/svg">
<path d="M10.3267 19.2808C10.6956 16.484 13.1678 13.9525 17.69 11.7465L18.5044 11.3493L15.1658 5.18542L14.4121 5.56744C4.84895 10.4151 0 17.2659 0 25.9299C0 28.9193 0.948937 31.5011 2.82064 33.6039C4.7186 35.736 7.02188 36.8171 9.66697 36.8171C12.0437 36.8171 14.059 35.9708 15.657 34.3014C17.2445 32.6427 18.0495 30.5825 18.0495 28.1778C18.0495 25.9055 17.2364 23.8805 15.6328 22.159C14.2184 20.6405 12.4362 19.6746 10.3267 19.2808ZM14.4022 33.1003C13.127 34.4326 11.5781 35.0802 9.66697 35.0802C7.50914 35.0802 5.69412 34.2195 4.11821 32.449C2.51582 30.6489 1.73685 28.5165 1.73685 25.9298C1.73685 21.9589 2.85502 18.3739 5.0601 15.2745C7.16412 12.3174 10.3199 9.70658 14.4478 7.50617L16.1203 10.594C11.0901 13.23 8.5415 16.3987 8.5415 20.0214V20.797L9.31219 20.8843C11.3882 21.1193 13.0398 21.9235 14.3619 23.3428C15.6744 24.7519 16.3126 26.3336 16.3126 28.1777C16.3127 30.1471 15.6877 31.7572 14.4022 33.1003Z" fill="#0003FF"/>
<path d="M33.8958 19.2832C34.2603 16.4841 36.7122 13.9513 41.1981 11.7451L42 11.3508L38.7443 5.1825L37.9832 5.56657C28.3763 10.414 23.5053 17.2651 23.5053 25.9298C23.5053 28.921 24.4664 31.5043 26.3617 33.6076C28.2807 35.7371 30.5935 36.8169 33.2364 36.8169C35.6161 36.8169 37.6222 35.9689 39.1989 34.2964C40.7621 32.6384 41.5547 30.5798 41.5547 28.1776C41.5547 25.9052 40.7416 23.8802 39.1382 22.1588C37.7267 20.6436 35.9659 19.6785 33.8958 19.2832ZM37.9353 33.1049C36.6821 34.434 35.1452 35.0801 33.2364 35.0801C31.0765 35.0801 29.2498 34.2182 27.652 32.445C26.0303 30.6454 25.2421 28.5143 25.2421 25.9298C25.2421 21.9595 26.3653 18.3751 28.5802 15.276C30.6935 12.3195 33.8629 9.70914 38.0084 7.50898L39.6355 10.592C34.6416 13.2289 32.1112 16.3983 32.1112 20.0213V20.7953L32.8799 20.884C34.9133 21.1187 36.5446 21.9229 37.8673 23.3427C39.1799 24.7518 39.8179 26.3333 39.8179 28.1777C39.818 30.1495 39.2021 31.7614 37.9353 33.1049Z" fill="#0003FF"/>
</svg>
