<svg width="70" height="70" viewBox="0 0 70 70" fill="none" xmlns="http://www.w3.org/2000/svg">
<path d="M35 1.09375C15.6794 1.09375 0 16.2832 0 35C0 53.7168 15.6794 68.9062 35 68.9062C54.3206 68.9062 70 53.7168 70 35C70 16.2832 54.3206 1.09375 35 1.09375Z" fill="#1ED760"/>
<path d="M57.3831 31.5957C56.6492 31.5957 56.1976 31.418 55.5625 31.0625C45.5141 25.252 27.5484 23.8574 15.9194 27.002C15.4113 27.1387 14.7762 27.3574 14.0988 27.3574C12.2359 27.3574 10.8105 25.9492 10.8105 24.1309C10.8105 22.2715 11.996 21.2188 13.2661 20.8633C18.2339 19.4551 23.7944 18.7852 29.8488 18.7852C40.1512 18.7852 50.9476 20.8633 58.8367 25.3203C59.9375 25.9355 60.6572 26.7832 60.6572 28.4102C60.6572 30.2695 59.1048 31.5957 57.3831 31.5957V31.5957ZM53.0081 42.0137C52.2742 42.0137 51.7802 41.6992 51.2722 41.4395C42.4516 36.3809 29.2984 34.3438 17.5988 37.4199C16.9214 37.5977 16.5544 37.7754 15.9194 37.7754C14.4093 37.7754 13.1815 36.5859 13.1815 35.123C13.1815 33.6602 13.9153 32.6895 15.369 32.293C19.2923 31.2266 23.3004 30.4336 29.1714 30.4336C38.3306 30.4336 47.1794 32.6348 54.1512 36.6543C55.2943 37.3105 55.746 38.1582 55.746 39.3477C55.7318 40.8242 54.5464 42.0137 53.0081 42.0137V42.0137ZM49.2117 50.9824C48.6189 50.9824 48.252 50.8047 47.7016 50.4902C38.8952 45.3496 28.6492 45.1309 18.5302 47.1406C17.9798 47.2773 17.2601 47.4961 16.8508 47.4961C15.4819 47.4961 14.621 46.4434 14.621 45.3359C14.621 43.9277 15.4819 43.2578 16.5403 43.0391C28.0988 40.5645 39.9113 40.7832 49.9879 46.6211C50.8488 47.1543 51.3568 47.6328 51.3568 48.877C51.3568 50.1211 50.3548 50.9824 49.2117 50.9824V50.9824Z" fill="black"/>
</svg>
