<svg width="60" height="60" viewBox="0 0 60 60" fill="none" xmlns="http://www.w3.org/2000/svg">
<g clip-path="url(#clip0_16_28)">
<mask id="mask0_16_28" style="mask-type:alpha" maskUnits="userSpaceOnUse" x="0" y="0" width="60" height="60">
<path fill-rule="evenodd" clip-rule="evenodd" d="M42.5471 59.5903C43.4921 59.9584 44.5697 59.9348 45.5235 59.4758L57.8765 53.5318C59.1745 52.9072 60 51.5935 60 50.1523V9.84798C60 8.40678 59.1746 7.09308 57.8765 6.46848L45.5235 0.524253C44.2717 -0.0780778 42.8068 0.0694556 41.7081 0.86817C41.5512 0.982266 41.4017 1.10966 41.2614 1.25005L17.6131 22.8249L7.31232 15.0058C6.3534 14.2779 5.01218 14.3375 4.1216 15.1477L0.817818 18.1529C-0.271531 19.1438 -0.27278 20.8576 0.815118 21.8502L9.74826 30.0001L0.815118 38.1499C-0.27278 39.1424 -0.271531 40.8563 0.817818 41.8472L4.1216 44.8525C5.01218 45.6626 6.3534 45.7222 7.31232 44.9943L17.6131 37.1752L41.2614 58.75C41.6355 59.1244 42.0748 59.4062 42.5471 59.5903ZM45.0091 16.3793L27.0655 30.0001L45.0091 43.6207V16.3793Z" fill="white"/>
</mask>
<g mask="url(#mask0_16_28)">
<path d="M57.8768 6.47777L45.5141 0.52538C44.0831 -0.163609 42.373 0.127022 41.25 1.25005L0.779148 38.15C-0.309416 39.1424 -0.308164 40.8563 0.781848 41.8472L4.08763 44.8525C4.97876 45.6626 6.32082 45.7222 7.28028 44.9944L56.0165 8.02199C57.6516 6.78161 60 7.94777 60 10.0001V9.85655C60 8.41595 59.1748 7.10273 57.8768 6.47777Z" fill="#0065A9"/>
<g filter="url(#filter0_d_16_28)">
<path d="M57.8768 53.5223L45.5141 59.4747C44.0831 60.1638 42.373 59.873 41.25 58.75L0.779148 21.8501C-0.309416 20.8576 -0.308164 19.1438 0.781848 18.1529L4.08763 15.1476C4.97876 14.3375 6.32082 14.2778 7.28028 15.0057L56.0165 51.9781C57.6516 53.2184 60 52.0523 60 50V50.1436C60 51.5841 59.1748 52.8973 57.8768 53.5223Z" fill="#007ACC"/>
</g>
<g filter="url(#filter1_d_16_28)">
<path d="M45.5147 59.4758C44.0833 60.1644 42.3731 59.8731 41.25 58.75C42.6338 60.1338 45 59.1537 45 57.1967V2.80329C45 0.846247 42.6338 -0.133851 41.25 1.24999C42.3731 0.126854 44.0833 -0.164187 45.5147 0.524192L57.8752 6.46843C59.174 7.09303 60 8.40673 60 9.84793V50.1523C60 51.5935 59.174 52.9072 57.8752 53.5318L45.5147 59.4758Z" fill="#1F9CF0"/>
</g>
<g style="mix-blend-mode:overlay" opacity="0.25">
<path style="mix-blend-mode:overlay" opacity="0.25" fill-rule="evenodd" clip-rule="evenodd" d="M42.5107 59.5903C43.4557 59.9584 44.5333 59.9348 45.487 59.4759L57.84 53.5319C59.138 52.9073 59.9635 51.5936 59.9635 50.1523V9.84802C59.9635 8.40676 59.1381 7.09306 57.8401 6.46846L45.487 0.524254C44.2353 -0.0780774 42.7703 0.069456 41.6716 0.868165C41.5147 0.982267 41.3652 1.10966 41.2249 1.25005L17.5766 22.8249L7.27584 15.0058C6.31698 14.2779 4.97571 14.3376 4.08513 15.1476L0.781351 18.1529C-0.308 19.1439 -0.309248 20.8577 0.778651 21.8502L9.71178 30L0.778651 38.15C-0.309248 39.1425 -0.308 40.8563 0.781351 41.8472L4.08513 44.8524C4.97571 45.6626 6.31698 45.7222 7.27584 44.9943L17.5766 37.1752L41.2249 58.7501C41.599 59.1243 42.0383 59.4063 42.5107 59.5903ZM44.9726 16.3794L27.029 30L44.9726 43.6208V16.3794Z" fill="url(#paint0_linear_16_28)"/>
</g>
</g>
</g>
<defs>
<filter id="filter0_d_16_28" x="-8.36981" y="6.1641" width="76.7031" height="62.0141" filterUnits="userSpaceOnUse" color-interpolation-filters="sRGB">
<feFlood flood-opacity="0" result="BackgroundImageFix"/>
<feColorMatrix in="SourceAlpha" type="matrix" values="0 0 0 0 0 0 0 0 0 0 0 0 0 0 0 0 0 0 127 0" result="hardAlpha"/>
<feOffset/>
<feGaussianBlur stdDeviation="4.16667"/>
<feColorMatrix type="matrix" values="0 0 0 0 0 0 0 0 0 0 0 0 0 0 0 0 0 0 0.25 0"/>
<feBlend mode="overlay" in2="BackgroundImageFix" result="effect1_dropShadow_16_28"/>
<feBlend mode="normal" in="SourceGraphic" in2="effect1_dropShadow_16_28" result="shape"/>
</filter>
<filter id="filter1_d_16_28" x="32.9167" y="-8.17868" width="35.4167" height="76.3575" filterUnits="userSpaceOnUse" color-interpolation-filters="sRGB">
<feFlood flood-opacity="0" result="BackgroundImageFix"/>
<feColorMatrix in="SourceAlpha" type="matrix" values="0 0 0 0 0 0 0 0 0 0 0 0 0 0 0 0 0 0 127 0" result="hardAlpha"/>
<feOffset/>
<feGaussianBlur stdDeviation="4.16667"/>
<feColorMatrix type="matrix" values="0 0 0 0 0 0 0 0 0 0 0 0 0 0 0 0 0 0 0.25 0"/>
<feBlend mode="overlay" in2="BackgroundImageFix" result="effect1_dropShadow_16_28"/>
<feBlend mode="normal" in="SourceGraphic" in2="effect1_dropShadow_16_28" result="shape"/>
</filter>
<linearGradient id="paint0_linear_16_28" x1="29.9635" y1="0.154724" x2="29.9635" y2="59.8454" gradientUnits="userSpaceOnUse">
<stop stop-color="white"/>
<stop offset="1" stop-color="white" stop-opacity="0"/>
</linearGradient>
<clipPath id="clip0_16_28">
<rect width="60" height="60" fill="white"/>
</clipPath>
</defs>
</svg>
